<svg width="14" height="14" viewBox="0 0 14 14" fill="none" xmlns="http://www.w3.org/2000/svg">
<path d="M13.9785 7.54134C14.0758 6.3017 13.8416 5.05847 13.3001 3.93984C12.4037 4.79388 11.3442 5.45702 10.1853 5.88924C10.2784 7.03623 10.2268 8.19043 10.0316 9.32445C11.4419 8.96829 12.7781 8.36461 13.9785 7.54134ZM8.89095 9.55553C9.12023 8.4563 9.2004 7.33105 9.12928 6.2103C8.44587 6.37371 7.73302 6.4601 7.00007 6.4601C6.26713 6.4601 5.55428 6.37371 4.87087 6.2103C4.80141 7.33105 4.88156 8.45607 5.1092 9.55553C6.36247 9.74817 7.63768 9.74817 8.89095 9.55553ZM5.40066 10.685C6.46323 10.8111 7.53692 10.8111 8.59949 10.685C8.2343 11.8638 7.69519 12.9812 7.00007 14C6.30494 12.9812 5.76583 11.8639 5.40066 10.685ZM3.96851 9.32517C3.77227 8.19078 3.72065 7.03597 3.81488 5.88852C2.65572 5.4564 1.59589 4.79326 0.699323 3.93912C0.157917 5.05803 -0.0760166 6.30153 0.0216534 7.54134C1.22203 8.36461 2.55827 8.96901 3.96851 9.32517ZM13.7165 8.98108C13.354 10.2127 12.6621 11.3213 11.7157 12.1864C10.7693 13.0515 9.60468 13.6402 8.34824 13.8884C8.97746 12.8275 9.4577 11.6846 9.77536 10.4921C11.1605 10.201 12.4907 9.69119 13.7165 8.9818V8.98108ZM0.283676 8.98108C1.49113 9.68007 2.81776 10.1962 4.22479 10.4921C4.54245 11.6846 5.02269 12.8275 5.65191 13.8884C4.39556 13.6402 3.231 13.0517 2.28463 12.1867C1.33826 11.3217 0.646237 10.2133 0.283676 8.9818V8.98108ZM8.34824 0.11086C10.1269 0.461441 11.7007 1.49001 12.7387 2.98025C11.9725 3.75655 11.0579 4.36965 10.0496 4.7828C9.77793 3.13274 9.20089 1.54818 8.34824 0.11086ZM7.00007 0C8.04774 1.53483 8.73609 3.28718 9.0137 5.12618C8.36977 5.29175 7.69497 5.3803 7.00007 5.3803C6.30518 5.3803 5.63038 5.29247 4.98645 5.12618C5.26404 3.28717 5.95238 1.53482 7.00007 0ZM5.65191 0.11086C4.79925 1.54817 4.22221 3.13273 3.95056 4.7828C2.94228 4.36967 2.02761 3.75656 1.26142 2.98025C2.29948 1.49022 3.87331 0.461191 5.65191 0.11086Z" fill="#FFA920"/>
</svg>
