<svg width="14" height="14" viewBox="0 0 14 14" fill="none" xmlns="http://www.w3.org/2000/svg">
<g clip-path="url(#clip0_2725_11072)">
<path fill-rule="evenodd" clip-rule="evenodd" d="M11.375 5.68749C11.375 5.80352 11.3289 5.9148 11.2469 5.99685C11.1648 6.07889 11.0535 6.12499 10.9375 6.12499H8.3125C8.19647 6.12499 8.08519 6.07889 8.00314 5.99685C7.92109 5.9148 7.875 5.80352 7.875 5.68749V3.06249C7.875 2.94646 7.92109 2.83518 8.00314 2.75313C8.08519 2.67108 8.19647 2.62499 8.3125 2.62499C8.42853 2.62499 8.53981 2.67108 8.62186 2.75313C8.70391 2.83518 8.75 2.94646 8.75 3.06249V4.63165L11.5033 1.87832C11.5434 1.83534 11.5917 1.80086 11.6454 1.77695C11.699 1.75304 11.757 1.74018 11.8157 1.73914C11.8744 1.73811 11.9328 1.74891 11.9873 1.77092C12.0417 1.79292 12.0912 1.82567 12.1328 1.86722C12.1743 1.90876 12.2071 1.95825 12.2291 2.01272C12.2511 2.0672 12.2619 2.12555 12.2608 2.18429C12.2598 2.24304 12.247 2.30097 12.223 2.35464C12.1991 2.4083 12.1647 2.4566 12.1217 2.49665L9.36833 5.24999H10.9375C11.0535 5.24999 11.1648 5.29608 11.2469 5.37813C11.3289 5.46018 11.375 5.57146 11.375 5.68749Z" fill="#FFA920"/>
<path fill-rule="evenodd" clip-rule="evenodd" d="M0.875 2.625C0.875 2.16087 1.05937 1.71575 1.38756 1.38756C1.71575 1.05937 2.16087 0.875 2.625 0.875H3.42533C3.927 0.875 4.3645 1.21683 4.48642 1.70333L5.131 4.28342C5.18323 4.49225 5.17268 4.71185 5.10067 4.91471C5.02866 5.11758 4.89838 5.29468 4.72617 5.42383L3.97192 5.98967C3.89317 6.04858 3.87625 6.13492 3.89842 6.195C4.22764 7.09033 4.74751 7.90341 5.42205 8.57795C6.09659 9.25249 6.90967 9.77236 7.805 10.1016C7.86508 10.1237 7.95083 10.1068 8.01033 10.0281L8.57617 9.27383C8.70532 9.10162 8.88242 8.97134 9.08529 8.89933C9.28815 8.82732 9.50775 8.81677 9.71658 8.869L12.2967 9.51358C12.7832 9.6355 13.125 10.073 13.125 10.5752V11.375C13.125 11.8391 12.9406 12.2842 12.6124 12.6124C12.2842 12.9406 11.8391 13.125 11.375 13.125H10.0625C4.98867 13.125 0.875 9.01133 0.875 3.9375V2.625Z" fill="#FFA920"/>
</g>
<defs>
<clipPath id="clip0_2725_11072">
<rect width="14" height="14" fill="white"/>
</clipPath>
</defs>
</svg>
