<svg width="14" height="14" viewBox="0 0 14 14" fill="none" xmlns="http://www.w3.org/2000/svg">
<path d="M7.00245 6.23096L13.4405 2.45388C13.2552 2.17965 13.0059 1.95459 12.7143 1.7981C12.4226 1.6416 12.0973 1.55836 11.7663 1.55554H2.23856C1.90589 1.5554 1.57822 1.63654 1.28407 1.79192C0.989915 1.9473 0.738185 2.17221 0.550781 2.44707L7.00245 6.23096Z" fill="#FFA920"/>
<path d="M7.68142 7.40156C7.47464 7.52151 7.23992 7.58489 7.00087 7.58531C6.76243 7.58696 6.52775 7.52594 6.32031 7.40837L0.195312 3.82184V10.4028C0.195313 10.9443 0.410416 11.4636 0.793303 11.8465C1.17619 12.2294 1.6955 12.4445 2.23698 12.4445H11.7648C12.3062 12.4445 12.8255 12.2294 13.2084 11.8465C13.5913 11.4636 13.8064 10.9443 13.8064 10.4028V3.82184L7.68142 7.40156Z" fill="#FFA920"/>
</svg>
