<svg width="15" height="12" viewBox="0 0 15 12" fill="none" xmlns="http://www.w3.org/2000/svg">
<path d="M1 6.5V6C1 5.60218 1.15804 5.22064 1.43934 4.93934C1.72064 4.65804 2.10218 4.5 2.5 4.5H12.5C12.8978 4.5 13.2794 4.65804 13.5607 4.93934C13.842 5.22064 14 5.60218 14 6V6.5M8.20667 2.20667L6.79333 0.793333C6.70048 0.700368 6.59022 0.626612 6.46886 0.57628C6.34749 0.525949 6.21739 0.500028 6.086 0.5H2.5C2.10218 0.5 1.72064 0.658035 1.43934 0.93934C1.15804 1.22064 1 1.60218 1 2V10C1 10.3978 1.15804 10.7794 1.43934 11.0607C1.72064 11.342 2.10218 11.5 2.5 11.5H12.5C12.8978 11.5 13.2794 11.342 13.5607 11.0607C13.842 10.7794 14 10.3978 14 10V4C14 3.60218 13.842 3.22064 13.5607 2.93934C13.2794 2.65804 12.8978 2.5 12.5 2.5H8.914C8.64887 2.49977 8.39402 2.39426 8.20667 2.20667Z" stroke="#8E8E93" stroke-linecap="round" stroke-linejoin="round"/>
</svg>
