<svg width="13" height="14" viewBox="0 0 13 14" fill="none" xmlns="http://www.w3.org/2000/svg">
<path d="M3 1V2.5M10 1V2.5M0.5 11.5V4C0.5 3.60218 0.658035 3.22064 0.93934 2.93934C1.22064 2.65804 1.60218 2.5 2 2.5H11C11.3978 2.5 11.7794 2.65804 12.0607 2.93934C12.342 3.22064 12.5 3.60218 12.5 4V11.5M0.5 11.5C0.5 11.8978 0.658035 12.2794 0.93934 12.5607C1.22064 12.842 1.60218 13 2 13H11C11.3978 13 11.7794 12.842 12.0607 12.5607C12.342 12.2794 12.5 11.8978 12.5 11.5M0.5 11.5V6.5C0.5 6.10218 0.658035 5.72064 0.93934 5.43934C1.22064 5.15804 1.60218 5 2 5H11C11.3978 5 11.7794 5.15804 12.0607 5.43934C12.342 5.72064 12.5 6.10218 12.5 6.5V11.5" stroke="#8E8E93" stroke-linecap="round" stroke-linejoin="round"/>
</svg>
