<svg width="11" height="14" viewBox="0 0 11 14" fill="none" xmlns="http://www.w3.org/2000/svg">
<path d="M7.99933 3C7.99933 3.66304 7.73594 4.29893 7.2671 4.76777C6.79826 5.23661 6.16237 5.5 5.49933 5.5C4.83629 5.5 4.20041 5.23661 3.73157 4.76777C3.26273 4.29893 2.99933 3.66304 2.99933 3C2.99933 2.33696 3.26273 1.70107 3.73157 1.23223C4.20041 0.763392 4.83629 0.5 5.49933 0.5C6.16237 0.5 6.79826 0.763392 7.2671 1.23223C7.73594 1.70107 7.99933 2.33696 7.99933 3ZM0.5 12.412C0.521423 11.1002 1.05756 9.84944 1.99278 8.92936C2.92801 8.00929 4.18739 7.49365 5.49933 7.49365C6.81127 7.49365 8.07066 8.00929 9.00588 8.92936C9.94111 9.84944 10.4772 11.1002 10.4987 12.412C8.93026 13.1312 7.22477 13.5023 5.49933 13.5C3.71533 13.5 2.022 13.1107 0.5 12.412Z" stroke="#8E8E93" stroke-linecap="round" stroke-linejoin="round"/>
</svg>
