<svg width="15" height="14" viewBox="0 0 15 14" fill="none" xmlns="http://www.w3.org/2000/svg">
<path d="M5.25 5.5C5.25 5.56631 5.22366 5.62989 5.17678 5.67678C5.12989 5.72366 5.0663 5.75 5 5.75C4.9337 5.75 4.87011 5.72366 4.82322 5.67678C4.77634 5.62989 4.75 5.56631 4.75 5.5C4.75 5.4337 4.77634 5.37011 4.82322 5.32322C4.87011 5.27634 4.9337 5.25 5 5.25C5.0663 5.25 5.12989 5.27634 5.17678 5.32322C5.22366 5.37011 5.25 5.4337 5.25 5.5ZM5.25 5.5H5M7.75 5.5C7.75 5.56631 7.72366 5.62989 7.67678 5.67678C7.62989 5.72366 7.5663 5.75 7.5 5.75C7.4337 5.75 7.37011 5.72366 7.32322 5.67678C7.27634 5.62989 7.25 5.56631 7.25 5.5C7.25 5.4337 7.27634 5.37011 7.32322 5.32322C7.37011 5.27634 7.4337 5.25 7.5 5.25C7.5663 5.25 7.62989 5.27634 7.67678 5.32322C7.72366 5.37011 7.75 5.4337 7.75 5.5ZM7.75 5.5H7.5M10.25 5.5C10.25 5.56631 10.2237 5.62989 10.1768 5.67678C10.1299 5.72366 10.0663 5.75 10 5.75C9.9337 5.75 9.87011 5.72366 9.82322 5.67678C9.77634 5.62989 9.75 5.56631 9.75 5.5C9.75 5.4337 9.77634 5.37011 9.82322 5.32322C9.87011 5.27634 9.9337 5.25 10 5.25C10.0663 5.25 10.1299 5.27634 10.1768 5.32322C10.2237 5.37011 10.25 5.4337 10.25 5.5ZM10.25 5.5H10M1 7.50667C1 8.57333 1.74867 9.50267 2.80467 9.658C3.52933 9.76467 4.26133 9.84667 5 9.904V13L7.78933 10.2113C7.92744 10.0738 8.11312 9.99453 8.308 9.99C9.60908 9.95799 10.907 9.84712 12.1947 9.658C13.2513 9.50267 14 8.574 14 7.506V3.494C14 2.426 13.2513 1.49733 12.1953 1.342C10.6406 1.11381 9.07135 0.999507 7.5 1C5.90533 1 4.33733 1.11667 2.80467 1.342C1.74867 1.49733 1 2.42667 1 3.494V7.506V7.50667Z" stroke="#8E8E93" stroke-linecap="round" stroke-linejoin="round"/>
</svg>
