<svg width="22" height="22" viewBox="0 0 22 22" fill="none" xmlns="http://www.w3.org/2000/svg">
<path d="M10.533 2.55658H7.10561C4.28686 2.55658 2.51953 4.55216 2.51953 7.37733V14.9985C2.51953 17.8237 4.27861 19.8192 7.10561 19.8192H15.1943C18.0222 19.8192 19.7813 17.8237 19.7813 14.9985V11.3062" stroke="#F1FAEE" stroke-width="1.5" stroke-linecap="round" stroke-linejoin="round"/>
<path fill-rule="evenodd" clip-rule="evenodd" d="M8.09012 10.0108L14.9404 3.16055C15.7938 2.30805 17.177 2.30805 18.0305 3.16055L19.146 4.27614C19.9995 5.12955 19.9995 6.51372 19.146 7.36622L12.2628 14.2495C11.8897 14.6226 11.3837 14.8325 10.8557 14.8325H7.42188L7.50804 11.3675C7.52087 10.8578 7.72896 10.372 8.09012 10.0108Z" stroke="#F1FAEE" stroke-width="1.5" stroke-linecap="round" stroke-linejoin="round"/>
<path d="M13.8984 4.21893L18.0839 8.40443" stroke="#F1FAEE" stroke-width="1.5" stroke-linecap="round" stroke-linejoin="round"/>
</svg>
