<svg width="22" height="22" viewBox="0 0 22 22" fill="none" xmlns="http://www.w3.org/2000/svg">
<path fill-rule="evenodd" clip-rule="evenodd" d="M19.0713 6.98821L18.5008 5.99813C18.0181 5.16037 16.9484 4.87136 16.1095 5.35206V5.35206C15.7101 5.5873 15.2336 5.65404 14.785 5.53756C14.3364 5.42108 13.9526 5.13096 13.7182 4.73116C13.5673 4.47703 13.4863 4.18759 13.4832 3.8921V3.8921C13.4968 3.41835 13.3181 2.95927 12.9877 2.61943C12.6574 2.27959 12.2035 2.08794 11.7296 2.08813H10.5801C10.1158 2.08813 9.67059 2.27315 9.34306 2.60226C9.01552 2.93138 8.83263 3.37744 8.83486 3.84176V3.84176C8.8211 4.80041 8.03999 5.57031 7.08124 5.57021C6.78575 5.56714 6.49631 5.4861 6.24219 5.33527V5.33527C5.40328 4.85458 4.33358 5.14359 3.85088 5.98135L3.23837 6.98821C2.75626 7.82493 3.04134 8.89395 3.87605 9.37952V9.37952C4.41863 9.69277 4.75288 10.2717 4.75288 10.8982C4.75288 11.5247 4.41863 12.1036 3.87605 12.4169V12.4169C3.0424 12.8992 2.75701 13.9656 3.23837 14.7998V14.7998L3.81732 15.7983C4.04348 16.2064 4.42294 16.5075 4.87173 16.6351C5.32052 16.7626 5.80164 16.7061 6.20862 16.4779V16.4779C6.60871 16.2445 7.08548 16.1805 7.53295 16.3002C7.98042 16.42 8.36152 16.7135 8.59154 17.1156C8.74236 17.3697 8.8234 17.6592 8.82647 17.9546V17.9546C8.82647 18.9231 9.6116 19.7083 10.5801 19.7083H11.7296C12.6948 19.7083 13.4786 18.9283 13.4832 17.963V17.963C13.481 17.4973 13.665 17.0499 13.9944 16.7206C14.3237 16.3912 14.7711 16.2072 15.2368 16.2094C15.5316 16.2173 15.8199 16.298 16.0759 16.4444V16.4444C16.9126 16.9265 17.9816 16.6414 18.4672 15.8067V15.8067L19.0713 14.7998C19.3052 14.3984 19.3693 13.9204 19.2497 13.4716C19.13 13.0227 18.8363 12.6401 18.4336 12.4085V12.4085C18.031 12.1769 17.7373 11.7943 17.6176 11.3454C17.4979 10.8966 17.5621 10.4186 17.796 10.0172C17.948 9.75171 18.1682 9.53158 18.4336 9.37952V9.37952C19.2634 8.89422 19.5478 7.83143 19.0713 6.9966V6.9966V6.98821Z" stroke="#F1FAEE" stroke-width="1.5" stroke-linecap="round" stroke-linejoin="round"/>
<ellipse cx="11.1587" cy="10.8982" rx="2.41648" ry="2.41648" stroke="#F1FAEE" stroke-width="1.5" stroke-linecap="round" stroke-linejoin="round"/>
</svg>
