<svg width="22" height="22" viewBox="0 0 22 22" fill="none" xmlns="http://www.w3.org/2000/svg">
<path d="M10.9935 15.287V12.9614" stroke="#F1FAEE" stroke-width="1.5" stroke-linecap="round" stroke-linejoin="round"/>
<path fill-rule="evenodd" clip-rule="evenodd" d="M16.6729 4.88599C18.222 4.88599 19.4687 6.14182 19.4687 7.69099V10.8443C17.2137 12.1643 14.2345 12.9618 10.9895 12.9618C7.74453 12.9618 4.77453 12.1643 2.51953 10.8443V7.68182C2.51953 6.13265 3.77536 4.88599 5.32453 4.88599H16.6729Z" stroke="#F1FAEE" stroke-width="1.5" stroke-linecap="round" stroke-linejoin="round"/>
<path d="M14.2018 4.88196V4.54646C14.2018 3.42813 13.2943 2.52063 12.176 2.52063H9.81099C8.69266 2.52063 7.78516 3.42813 7.78516 4.54646V4.88196" stroke="#F1FAEE" stroke-width="1.5" stroke-linecap="round" stroke-linejoin="round"/>
<path d="M2.54297 14.1927L2.71622 16.4927C2.83355 18.0427 4.12514 19.2408 5.67889 19.2408H16.3113C17.8651 19.2408 19.1566 18.0427 19.274 16.4927L19.4472 14.1927" stroke="#F1FAEE" stroke-width="1.5" stroke-linecap="round" stroke-linejoin="round"/>
</svg>
