<svg width="18" height="18" viewBox="0 0 18 18" fill="none" xmlns="http://www.w3.org/2000/svg">
<path d="M5.41251 8.18025C5.23091 7.85348 4.94594 7.59627 4.60234 7.44899C4.25874 7.3017 3.87596 7.27268 3.51408 7.36648C3.1522 7.46029 2.83171 7.6716 2.60293 7.96725C2.37414 8.2629 2.25 8.62616 2.25 9C2.25 9.37384 2.37414 9.73709 2.60293 10.0327C2.83171 10.3284 3.1522 10.5397 3.51408 10.6335C3.87596 10.7273 4.25874 10.6983 4.60234 10.551C4.94594 10.4037 5.23091 10.1465 5.41251 9.81975M5.41251 8.18025C5.54751 8.42325 5.62476 8.70225 5.62476 9C5.62476 9.29775 5.54751 9.5775 5.41251 9.81975M5.41251 8.18025L12.587 4.19475M5.41251 9.81975L12.587 13.8052M12.587 4.19475C12.6922 4.39285 12.8358 4.568 13.0095 4.70995C13.1832 4.85189 13.3834 4.95779 13.5985 5.02146C13.8135 5.08512 14.0392 5.10527 14.2621 5.08072C14.4851 5.05617 14.7009 4.98742 14.897 4.87849C15.093 4.76957 15.2654 4.62264 15.404 4.44631C15.5427 4.26998 15.6448 4.06778 15.7043 3.85154C15.7639 3.63529 15.7798 3.40934 15.751 3.18689C15.7222 2.96445 15.6494 2.74997 15.5368 2.556C15.3148 2.17375 14.9518 1.89385 14.5256 1.77646C14.0995 1.65907 13.6443 1.71356 13.2579 1.92821C12.8715 2.14287 12.5848 2.50056 12.4593 2.92439C12.3339 3.34823 12.3797 3.80436 12.587 4.19475ZM12.587 13.8052C12.4794 13.999 12.4109 14.2121 12.3856 14.4323C12.3603 14.6526 12.3787 14.8756 12.4396 15.0888C12.5005 15.3019 12.6028 15.501 12.7406 15.6746C12.8784 15.8482 13.0491 15.993 13.2429 16.1006C13.4367 16.2083 13.6498 16.2767 13.87 16.302C14.0902 16.3273 14.3133 16.309 14.5264 16.2481C14.7396 16.1872 14.9386 16.0849 15.1122 15.947C15.2858 15.8092 15.4306 15.6385 15.5383 15.4447C15.7557 15.0534 15.8087 14.5917 15.6857 14.1612C15.5627 13.7308 15.2737 13.3668 14.8824 13.1494C14.491 12.932 14.0293 12.8789 13.5989 13.0019C13.1684 13.1249 12.8044 13.4139 12.587 13.8052Z" stroke="#8E8E93" stroke-width="1.5" stroke-linecap="round" stroke-linejoin="round"/>
</svg>
