<svg width="50" height="50" viewBox="0 0 50 50" fill="none" xmlns="http://www.w3.org/2000/svg">
<g clip-path="url(#clip0_1444_27241)">
<path d="M15.234 43.5156C14.9215 43.2812 14.5309 43.0469 14.2184 42.8906C14.2965 42.2656 14.2184 41.5625 14.0622 40.8594C13.7497 39.6875 13.1247 38.5937 12.2653 37.5781C11.484 38.2031 11.0934 39.2969 11.2497 40.4688C10.7028 39.9219 10.1559 39.375 9.68716 38.8281C9.99966 38.2812 10.1559 37.5781 10.1559 36.875C10.234 35.7031 9.99967 34.5312 9.45279 33.3594C8.43717 33.75 7.81216 34.7656 7.65591 35.9375C7.26529 35.3125 6.95279 34.6094 6.64029 33.9844C7.10904 33.5156 7.49966 32.8906 7.73404 32.1875C8.12466 31.0938 8.20279 29.9219 7.96841 28.6719C6.87466 28.8281 5.93716 29.6094 5.46841 30.7812C5.23404 30 5.07779 29.2969 4.99966 28.5156C5.62466 28.2031 6.17154 27.6562 6.56216 27.0312C7.18716 26.0938 7.65591 24.9219 7.73404 23.6719C6.56216 23.5156 5.39029 24.1406 4.68716 25.2344C4.68716 24.4531 4.76529 23.5938 4.84341 22.8125C5.54654 22.6562 6.24966 22.2656 6.87466 21.7969C7.73404 21.0938 8.43716 20.0781 8.90591 18.9063C7.81216 18.4375 6.48404 18.75 5.46841 19.6875C5.70279 18.9063 5.93716 18.0469 6.24966 17.2656C7.03091 17.3438 7.81216 17.1094 8.51529 16.7969C9.53091 16.3281 10.4684 15.5469 11.2497 14.4531C10.3122 13.6719 8.90592 13.6719 7.65591 14.375C8.12466 13.5938 8.59341 12.8906 9.14029 12.1875C9.84341 12.5 10.7028 12.5 11.5622 12.3438C12.734 12.1094 13.9059 11.6406 14.9997 10.7812C14.2965 9.76562 12.8903 9.375 11.4059 9.76562C12.4997 8.75 13.6715 7.8125 15.0778 7.03125C15.4684 6.79688 15.6247 6.32812 15.3903 5.9375C15.1559 5.54687 14.609 5.39062 14.2184 5.625C12.734 6.48437 11.4059 7.5 10.234 8.59375C10.859 7.03125 10.9372 5.625 10.234 4.53125C8.82779 5.46875 7.81216 7.03125 7.57779 8.35938C7.34341 9.375 7.49966 10.2344 7.96841 10.9375C7.34341 11.7188 6.79654 12.5781 6.32779 13.3594C6.48404 11.7188 6.09341 10.3125 5.15591 9.53125C4.06216 11.0156 3.59341 12.7344 3.74966 14.0625C3.82779 15.0781 4.21841 15.8594 4.84341 16.4062C4.45279 17.3438 4.14029 18.2031 3.90591 19.1406C3.59341 17.5781 2.89029 16.3281 1.71841 15.7813C1.09341 17.5 1.09341 19.2188 1.56216 20.4688C1.95279 21.4062 2.49966 22.0312 3.28091 22.4219C3.12466 23.3594 3.12466 24.2969 3.12466 25.2344C2.42154 23.8281 1.40591 22.8906 0.155914 22.7344C-0.000335678 24.5312 0.468414 26.1719 1.24966 27.2656C1.79654 28.0469 2.57779 28.5156 3.35904 28.6719C3.43716 29.6094 3.67154 30.4687 3.82779 31.3281C2.81216 30.2344 1.64029 29.6094 0.390289 29.7656C0.702789 31.5625 1.56216 33.0469 2.65591 33.8281C3.35904 34.4531 4.21841 34.6875 4.92154 34.6094C5.23404 35.3906 5.62466 36.25 6.01529 36.9531C4.68716 36.4062 3.43716 36.0937 2.34341 36.5625C3.12466 38.2031 4.37466 39.4531 5.62466 40C6.48404 40.3906 7.26529 40.3906 7.96841 40.2344C8.51529 40.9375 9.06216 41.5625 9.68716 42.1875C8.35904 41.875 7.18716 41.9531 6.32779 42.6562C7.57779 44.0625 9.21842 44.9219 10.6247 45.1562C11.484 45.3125 12.2653 45.1562 12.8903 44.8438C13.2028 45.0781 13.5934 45.3125 13.9059 45.5469C14.5309 45.9375 15.3122 45.7031 15.6247 45.0781C15.9372 44.5312 15.7809 43.8281 15.234 43.5156ZM46.3278 31.3281C46.5622 30.4687 46.7184 29.5312 46.7965 28.6719C47.5778 28.5156 48.2809 28.0469 48.9059 27.2656C49.6872 26.1719 50.1559 24.5312 49.9997 22.7344C48.7497 22.8906 47.734 23.9062 47.0309 25.2344C47.0309 24.2969 46.9528 23.3594 46.8747 22.4219C47.5778 22.1094 48.2028 21.4062 48.5934 20.4688C49.0622 19.2188 49.1403 17.5 48.4372 15.7813C47.2653 16.3281 46.5622 17.5781 46.2497 19.1406C46.0153 18.2031 45.7028 17.2656 45.3122 16.4062C45.9372 15.8594 46.3278 15.0781 46.4059 14.0625C46.5622 12.7344 46.0934 11.0156 44.9997 9.53125C43.984 10.3125 43.6715 11.7969 43.8278 13.3594C43.2028 12.5 42.6559 11.7188 42.0309 10.9375C42.4997 10.3125 42.6559 9.375 42.4215 8.35938C42.1872 7.03125 41.1715 5.46875 39.609 4.21875C38.9059 5.23438 38.984 6.71875 39.609 8.28125C38.4372 7.1875 37.109 6.17188 35.6247 5.3125C35.234 5.07813 34.6872 5.23437 34.4528 5.625C34.2184 6.01562 34.3747 6.48438 34.7653 6.71875C36.0934 7.5 37.3434 8.4375 38.4372 9.45312C36.9528 9.0625 35.5465 9.45312 34.8434 10.4687C35.9372 11.3281 37.109 11.7969 38.2809 12.0312C39.1403 12.1875 39.9997 12.1875 40.7028 11.875C41.2497 12.5781 41.7965 13.3594 42.1872 14.0625C40.9372 13.3594 39.5309 13.3594 38.5934 14.1406C39.3747 15.1563 40.3122 16.0156 41.3278 16.4844C42.109 16.875 42.8903 17.0313 43.5934 16.9531C43.9059 17.7344 44.1403 18.5156 44.3747 19.375C43.359 18.4375 42.0309 18.125 40.9372 18.5938C41.4059 19.7656 42.109 20.7812 42.9684 21.4844C43.5934 22.0312 44.2965 22.3438 44.9997 22.5C45.0778 23.2812 45.1559 24.1406 45.1559 24.9219C44.4528 23.8281 43.2809 23.2031 42.109 23.3594C42.2653 24.6094 42.6559 25.7812 43.2809 26.7188C43.6715 27.3438 44.2184 27.8906 44.8434 28.2031C44.6872 28.9844 44.5309 29.6875 44.3747 30.4687C43.9059 29.2969 43.0465 28.4375 41.8747 28.3594C41.6403 29.6094 41.7965 30.8594 42.109 31.875C42.3434 32.5781 42.6559 33.2031 43.2028 33.6719C42.8903 34.375 42.5778 35 42.1872 35.625C42.0309 34.4531 41.4059 33.4375 40.3903 33.0469C39.8434 34.2187 39.609 35.3906 39.6872 36.5625C39.6872 37.2656 39.8434 37.9688 40.1559 38.5156C39.6872 39.0625 39.1403 39.6094 38.5934 40.1562C38.7497 38.9844 38.4372 37.8906 37.5778 37.2656C36.7184 38.2812 36.0934 39.375 35.7809 40.5469C35.6247 41.25 35.5465 41.9531 35.6247 42.5781C35.3122 42.8125 34.9997 43.0469 34.609 43.2031C34.0622 43.5156 33.9059 44.2188 34.1403 44.7656C34.4528 45.3906 35.234 45.625 35.859 45.2344C36.2497 45 36.5622 44.7656 36.8747 44.5312C37.4997 44.8438 38.2809 45 39.1403 44.8438C40.5465 44.6094 42.1872 43.75 43.4372 42.3438C42.5778 41.6406 41.4059 41.5625 40.0778 41.875C40.7028 41.25 41.2497 40.625 41.7965 39.9219C42.4997 40.0781 43.2809 40 44.1403 39.6875C45.3903 39.1406 46.6403 37.9688 47.4215 36.25C46.3278 35.7812 45.0778 36.0937 43.9059 36.7969C44.2965 36.0156 44.6872 35.2344 44.9997 34.4531C45.7809 34.4531 46.5622 34.2187 47.2653 33.6719C48.2809 32.8125 49.2184 31.4062 49.5309 29.6094C48.5153 29.6094 47.3434 30.3125 46.3278 31.3281Z" fill="#FFA920"/>
<path d="M34.6094 38.5156L32.9688 29.0625L39.8438 22.3438C40.0781 22.1094 40.1562 21.7969 40.0781 21.5625C40 21.25 39.7656 21.0938 39.4531 21.0156L29.9219 19.6094L25.7031 11.0156C25.5469 10.7813 25.3125 10.5469 25 10.5469C24.6875 10.5469 24.4531 10.7031 24.2969 11.0156L20.0781 19.6094L10.5469 21.0156C10.2344 21.0938 10 21.25 9.92187 21.5625C9.84375 21.875 9.92188 22.1875 10.1563 22.3438L17.0312 29.0625L15.3906 38.5156C15.3125 38.8281 15.4688 39.1406 15.7031 39.2969C15.9375 39.4531 16.25 39.5313 16.5625 39.375L25 34.8437L33.5156 39.2969C33.5938 39.375 33.75 39.375 33.9062 39.375C34.0625 39.375 34.2188 39.2969 34.375 39.2188C34.5312 39.0625 34.6875 38.8281 34.6094 38.5156Z" fill="#FFA920"/>
</g>
<defs>
<clipPath id="clip0_1444_27241">
<rect width="50" height="50" fill="white"/>
</clipPath>
</defs>
</svg>
