<svg width="50" height="50" viewBox="0 0 50 50" fill="none" xmlns="http://www.w3.org/2000/svg">
<g opacity="0.3">
<mask id="mask0_2290_9114" style="mask-type:luminance" maskUnits="userSpaceOnUse" x="6" y="6" width="39" height="38">
<path d="M43.5001 43.5V6.49987H6.5V43.5H43.5001Z" fill="white" stroke="white"/>
</mask>
<g mask="url(#mask0_2290_9114)">
<path d="M27.1876 21.5002C27.1876 23.3585 26.0473 24.75 24.6819 24.75C23.3166 24.75 22.1093 23.3778 22.1093 21.5195C22.1093 19.6614 23.3837 18.4233 24.7491 18.4233C26.1143 18.4233 27.1876 19.6421 27.1876 21.5002Z" stroke="white" stroke-miterlimit="10" stroke-linecap="round" stroke-linejoin="round"/>
<path d="M24.868 27.8945C22.1524 27.8194 19.6763 25.9815 18.9411 23.1859C18.0924 19.9591 19.9485 16.5889 23.1278 15.5769C26.4903 14.5065 30.0664 16.3982 31.0824 19.7644C31.4419 21.1114 31.2321 22.2832 30.7557 23.481C30.5668 23.956 29.9439 25.0679 28.5581 25.0679C27.8016 25.0679 27.1708 24.3429 27.175 23.5078L27.2024 17.9739" stroke="white" stroke-miterlimit="10" stroke-linecap="round" stroke-linejoin="round"/>
<path d="M31.0829 19.7649C31.4424 21.1118 31.2326 22.2836 30.7562 23.4814" stroke="white" stroke-miterlimit="10" stroke-linecap="round" stroke-linejoin="round"/>
<path d="M30.366 11.5664L24.9999 7.11327L19.6339 11.5664" stroke="white" stroke-miterlimit="10" stroke-linecap="round" stroke-linejoin="round"/>
<path d="M12.3828 17.5839L7.11328 21.957V42.8867H42.8868V21.957L37.6173 17.5839" stroke="white" stroke-miterlimit="10" stroke-linecap="round" stroke-linejoin="round"/>
<path d="M25 33.0898L37.6173 25.2368V11.5663H12.3828V25.2368L25 33.0898Z" stroke="white" stroke-miterlimit="10" stroke-linecap="round" stroke-linejoin="round"/>
<path d="M42.8868 21.957L25.0001 33.0898L7.11328 21.957V42.8867H42.8868V21.957Z" stroke="white" stroke-miterlimit="10" stroke-linecap="round" stroke-linejoin="round"/>
</g>
</g>
</svg>
