<svg width="25" height="25" viewBox="0 0 25 25" fill="none" xmlns="http://www.w3.org/2000/svg">
<path d="M5.04883 6.40508C5.04883 5.6222 5.67272 5 6.41981 5C7.16686 5 7.7908 5.62221 7.7908 6.40508C7.7908 7.18801 7.16722 7.8101 6.41981 7.8101C5.67241 7.8101 5.04883 7.18801 5.04883 6.40508Z" stroke="#8E8E93"/>
<path d="M11.1045 6.40508C11.1045 5.62221 11.7284 5 12.4755 5C13.2229 5 13.8466 5.6222 13.8466 6.40508C13.8466 7.18789 13.2227 7.8101 12.4755 7.8101C11.7284 7.8101 11.1045 7.18794 11.1045 6.40508Z" stroke="#8E8E93"/>
<path d="M19.9998 6.40514C19.9998 7.18797 19.3757 7.81016 18.6288 7.81016C17.8818 7.81016 17.2578 7.18794 17.2578 6.40508C17.2578 5.62211 17.8813 5 18.6288 5C19.3763 5 19.9998 5.62215 19.9998 6.40514Z" stroke="#8E8E93"/>
<path d="M7.74249 12.5097C7.74249 13.2926 7.11849 13.9147 6.37133 13.9147C5.62411 13.9147 5 13.2926 5 12.5097C5 11.7267 5.62419 11.1044 6.37133 11.1044C7.11842 11.1044 7.74249 11.7266 7.74249 12.5097Z" stroke="#8E8E93"/>
<path d="M13.7976 12.5097C13.7976 13.2927 13.1736 13.9147 12.4266 13.9147C11.6795 13.9147 11.0557 13.2927 11.0557 12.5097C11.0557 11.7265 11.6793 11.1044 12.4266 11.1044C13.1741 11.1044 13.7976 11.7265 13.7976 12.5097Z" stroke="#8E8E93"/>
<path d="M19.9516 12.5097C19.9516 13.2927 19.328 13.9147 18.5807 13.9147C17.8329 13.9147 17.209 13.2925 17.209 12.5097C17.209 11.7268 17.8332 11.1044 18.5807 11.1044C19.3279 11.1044 19.9516 11.7265 19.9516 12.5097Z" stroke="#8E8E93"/>
<path d="M5.04297 18.5947C5.04297 17.8118 5.66709 17.1896 6.4143 17.1896C7.16137 17.1896 7.78523 17.8116 7.78523 18.5947C7.78523 19.3778 7.16139 19.9997 6.4143 19.9997C5.66714 19.9997 5.04297 19.3773 5.04297 18.5947Z" stroke="#8E8E93"/>
<path d="M11.0986 18.5947C11.0986 17.8118 11.7227 17.1896 12.47 17.1896C13.2169 17.1896 13.8409 17.8117 13.8409 18.5947C13.8409 19.3778 13.2169 19.9997 12.47 19.9997C11.7225 19.9997 11.0986 19.3774 11.0986 18.5947Z" stroke="#8E8E93"/>
<path d="M17.252 18.5947C17.252 17.8117 17.876 17.1896 18.6229 17.1896C19.3699 17.1896 19.9939 17.8117 19.9939 18.5947C19.9939 19.3778 19.3702 19.9997 18.6229 19.9997C17.876 19.9997 17.252 19.3774 17.252 18.5947Z" stroke="#8E8E93"/>
</svg>
