<svg width="18" height="18" viewBox="0 0 18 18" fill="none" xmlns="http://www.w3.org/2000/svg">
<path d="M15.125 2.25H14.375V1H13.125V2.25H4.875V1H3.625V2.25H2.875C1.84113 2.25 1 3.09113 1 4.125V15.125C1 16.1589 1.84113 17 2.875 17H15.125C16.1589 17 17 16.1589 17 15.125V4.125C17 3.09113 16.1589 2.25 15.125 2.25ZM15.75 15.125C15.75 15.4696 15.4696 15.75 15.125 15.75H2.875C2.53038 15.75 2.25 15.4696 2.25 15.125V6.875H15.75V15.125ZM15.75 5.625H2.25V4.125C2.25 3.78038 2.53038 3.5 2.875 3.5H3.625V4.75H4.875V3.5H13.125V4.75H14.375V3.5H15.125C15.4696 3.5 15.75 3.78038 15.75 4.125V5.625Z" fill="#8E8E93" stroke="white" stroke-width="0.2"/>
<path d="M3.375 8.1875H4.625V9.4375H3.375V8.1875ZM5.875 8.1875H7.125V9.4375H5.875V8.1875ZM8.375 8.1875H9.625V9.4375H8.375V8.1875ZM10.875 8.1875H12.125V9.4375H10.875V8.1875ZM13.375 8.1875H14.625V9.4375H13.375V8.1875ZM3.375 10.6875H4.625V11.9375H3.375V10.6875ZM5.875 10.6875H7.125V11.9375H5.875V10.6875ZM8.375 10.6875H9.625V11.9375H8.375V10.6875ZM10.875 10.6875H12.125V11.9375H10.875V10.6875ZM3.375 13.1875H4.625V14.4375H3.375V13.1875ZM5.875 13.1875H7.125V14.4375H5.875V13.1875ZM8.375 13.1875H9.625V14.4375H8.375V13.1875ZM10.875 13.1875H12.125V14.4375H10.875V13.1875ZM13.375 10.6875H14.625V11.9375H13.375V10.6875Z" fill="#8E8E93" stroke="white" stroke-width="0.2"/>
</svg>
