<svg width="16" height="17" viewBox="0 0 16 17" fill="none" xmlns="http://www.w3.org/2000/svg">
<path d="M15.9735 13.343L14.4762 4.85134C14.3731 4.2665 13.9833 3.78325 13.4335 3.55869L9.86063 2.09923C9.70857 2.03723 9.54834 1.99757 9.38492 1.98148L9.19201 0.887453C9.14707 0.632517 8.90411 0.462331 8.64901 0.507237C8.39405 0.552174 8.22383 0.795297 8.2688 1.05023L8.46173 2.14438C8.31591 2.21445 8.18082 2.30495 8.06055 2.41316L7.65586 2.77763L7.59586 2.72319C7.47418 2.61292 7.33718 2.52084 7.18912 2.44982L7.43589 1.05023C7.48083 0.795297 7.31061 0.552174 7.05568 0.507237C6.80077 0.462143 6.55762 0.632486 6.51268 0.887453L6.26587 2.28713C6.10487 2.3031 5.94696 2.34196 5.79694 2.40254L2.19183 3.85944C1.6388 4.08293 1.24677 4.56706 1.14318 5.15452L0.026282 11.4889C-0.13828 12.4223 0.487154 13.3154 1.42046 13.48L5.98543 14.2849L6.12553 15.0795C6.27237 15.9124 6.9993 16.5 7.8173 16.5C7.91602 16.5 8.01611 16.4914 8.11661 16.4737L14.5794 15.3342C15.5127 15.1696 16.1381 14.2764 15.9735 13.343ZM14.4166 14.4109L7.9538 15.5504C7.74827 15.5866 7.54099 15.5407 7.37002 15.421C7.19908 15.3013 7.08499 15.1222 7.04874 14.9167L6.9679 14.4582L7.88317 14.6196C7.98291 14.6372 8.08399 14.6461 8.18527 14.6461C8.53467 14.6461 8.87526 14.5394 9.16745 14.3348C9.54354 14.0715 9.79454 13.6775 9.87426 13.2254L10.9917 6.88795C11.0948 6.30308 10.8938 5.71567 10.454 5.31665L8.35361 3.41081L8.68783 3.10982C8.83333 2.97882 9.02189 2.90972 9.21239 2.90972C9.3117 2.90972 9.41157 2.92853 9.50607 2.96713L13.079 4.42659C13.3289 4.52868 13.506 4.74831 13.5529 5.01415L15.0503 13.5058C15.1251 13.9301 14.8408 14.3361 14.4166 14.4109ZM0.949495 11.6517L2.06646 5.3173C2.11355 5.05027 2.29174 4.83021 2.54311 4.72862L6.0879 3.29606L5.98631 3.87231C5.94137 4.12725 6.11159 4.37037 6.36653 4.41531C6.39406 4.42018 6.42143 4.4225 6.44846 4.4225C6.67165 4.4225 6.86943 4.26246 6.90952 4.03506L7.01118 3.45859L9.8241 6.01092C10.024 6.1923 10.1153 6.4593 10.0685 6.72514L8.95104 13.0626C8.91479 13.2681 8.8007 13.4472 8.62976 13.5669C8.45883 13.6866 8.25152 13.7325 8.04599 13.6963L1.58321 12.5568C1.15899 12.4819 0.874714 12.0759 0.949495 11.6517Z" fill="#8E8E93"/>
<path d="M4.72101 11.4015L4.64617 11.8259C4.6162 11.9959 4.7297 12.158 4.89967 12.1879C4.91801 12.1912 4.93626 12.1927 4.95429 12.1927C5.10307 12.1927 5.23495 12.086 5.26167 11.9344L5.34067 11.4865C5.66182 11.4855 5.96835 11.3962 6.24035 11.2224C6.56413 11.0155 6.81338 10.7018 6.94216 10.339C7.20434 9.60041 6.92256 8.86823 6.22432 8.4737C6.11697 8.41317 6.01041 8.35127 5.90466 8.28801L6.21688 6.51733C6.43635 6.59818 6.56266 6.73133 6.64675 6.82014C6.67069 6.84542 6.69331 6.86933 6.71644 6.89071C6.84319 7.00786 7.04087 7.00008 7.15803 6.87339C7.27518 6.74668 7.26743 6.54896 7.14072 6.4318C7.13287 6.42455 7.11647 6.40724 7.10062 6.39049C6.98731 6.27077 6.75047 6.02068 6.32641 5.89618L6.39094 5.53012C6.42091 5.36015 6.30741 5.19809 6.13744 5.16812C5.96747 5.13818 5.80541 5.25162 5.77544 5.42162L5.70441 5.8244C5.64004 5.82681 5.57344 5.83162 5.50388 5.83987C4.98942 5.9009 4.55051 6.25508 4.35839 6.76424C4.18377 7.22705 4.25486 7.71476 4.54395 8.03704C4.70526 8.21689 4.91595 8.3926 5.2162 8.59307L4.82954 10.7859C4.52517 10.7157 4.33964 10.6175 4.04202 10.3381C3.9162 10.22 3.71842 10.2262 3.6003 10.352C3.48218 10.4778 3.48839 10.6756 3.61424 10.7937C4.01933 11.174 4.31311 11.3106 4.72101 11.4015ZM6.35316 10.13C6.23122 10.4735 5.90947 10.8057 5.45201 10.855L5.78882 8.94485C5.83032 8.96876 5.87297 8.9931 5.91682 9.01788C6.55916 9.38078 6.41322 9.96084 6.35316 10.13ZM5.0092 7.6197C4.87651 7.47176 4.8512 7.22852 4.94314 6.98486C5.02889 6.75758 5.24057 6.50049 5.57748 6.46052C5.58257 6.45993 5.58744 6.45952 5.59251 6.45896L5.33626 7.91223C5.19951 7.80858 5.0927 7.71273 5.0092 7.6197Z" fill="#8E8E93"/>
</svg>
