<svg width="16" height="17" viewBox="0 0 16 17" fill="none" xmlns="http://www.w3.org/2000/svg">
<g clip-path="url(#clip0_2196_20955)">
<path d="M4.86647 5.27075C3.30072 5.27075 2.02687 6.5446 2.02687 8.11035C2.02687 9.6761 3.30072 10.9499 4.86647 10.9499C6.43222 10.9499 7.70606 9.6761 7.70606 8.11035C7.70606 6.5446 6.43222 5.27075 4.86647 5.27075ZM4.86647 10.0124C3.81762 10.0124 2.96437 9.15916 2.96437 8.11035C2.96437 7.06153 3.81766 6.20825 4.86647 6.20825C5.91528 6.20825 6.76856 7.06153 6.76856 8.11035C6.76856 9.15916 5.91528 10.0124 4.86647 10.0124Z" fill="#8E8E93"/>
<path d="M15.5312 11.6729H11.9411V10.7053C11.9411 10.4465 11.7312 10.2366 11.4723 10.2366H9.73291V8.02666C9.73291 7.67487 9.69503 7.33181 9.62378 7.001L10.3063 6.49109C10.6027 6.26969 10.7951 5.94609 10.8482 5.57997C10.9012 5.21381 10.8084 4.84897 10.587 4.55256L9.80781 3.50953C9.58641 3.21312 9.26284 3.02072 8.89669 2.96769C8.5305 2.91469 8.16569 3.00741 7.86928 3.22884L7.17809 3.74519C6.49003 3.37222 5.70256 3.16019 4.86647 3.16019C2.18306 3.16022 0 5.34328 0 8.02666V11.7748C0 13.0275 1.01916 14.0467 2.27187 14.0467H11.4723C11.7312 14.0467 11.9411 13.8368 11.9411 13.5779V12.6104H15.0625V13.5719C15.0625 13.8308 15.2724 14.0407 15.5312 14.0407C15.7901 14.0407 16 13.8308 16 13.5719V12.1416C16 11.8827 15.7901 11.6729 15.5312 11.6729ZM8.43034 3.97991C8.52609 3.90837 8.64391 3.87837 8.76234 3.89553C8.88066 3.91266 8.98519 3.97484 9.05675 4.07059L9.83597 5.11366C9.90753 5.20944 9.9375 5.32731 9.92037 5.44562C9.90325 5.56394 9.84106 5.6685 9.74528 5.74003L9.31728 6.05978C9.01484 5.37803 8.56025 4.77834 7.99681 4.30381L8.43034 3.97991ZM11.0036 13.1092H2.27187C1.53609 13.1092 0.9375 12.5106 0.9375 11.7748V8.02666C0.9375 5.86022 2.70003 4.09772 4.86647 4.09772C7.03291 4.09772 8.79544 5.86025 8.79544 8.02669V10.7054C8.79544 10.9642 9.00531 11.1741 9.26419 11.1741H11.0036V13.1092H11.0036Z" fill="#8E8E93"/>
</g>
<defs>
<clipPath id="clip0_2196_20955">
<rect width="16" height="16" fill="white" transform="translate(0 0.5)"/>
</clipPath>
</defs>
</svg>
