<svg width="18" height="14" viewBox="0 0 18 14" fill="none" xmlns="http://www.w3.org/2000/svg">
<path d="M5.47579 3.36707C3.71432 3.36707 2.28125 4.80014 2.28125 6.56161C2.28125 8.32308 3.71432 9.75615 5.47579 9.75615C7.23726 9.75615 8.67034 8.32308 8.67034 6.56161C8.67034 4.80014 7.23726 3.36707 5.47579 3.36707ZM5.47579 8.70146C4.29584 8.70146 3.33594 7.74152 3.33594 6.56161C3.33594 5.38169 4.29588 4.42175 5.47579 4.42175C6.65571 4.42175 7.61565 5.38169 7.61565 6.56161C7.61565 7.74152 6.65571 8.70146 5.47579 8.70146Z" fill="#8E8E93"/>
<path d="M17.4727 10.5696H13.4337V9.48113C13.4337 9.1899 13.1976 8.95379 12.9064 8.95379H10.9495V6.46761C10.9495 6.07186 10.9069 5.68591 10.8268 5.31375L11.5946 4.7401C11.9281 4.49102 12.1445 4.12698 12.2042 3.71509C12.2638 3.30316 12.1595 2.89271 11.9104 2.55925L11.0338 1.38584C10.7847 1.05239 10.4207 0.83593 10.0088 0.776269C9.59681 0.716644 9.1864 0.820953 8.85294 1.07007L8.07536 1.65096C7.30129 1.23137 6.41538 0.992832 5.47478 0.992832C2.45595 0.992867 0 3.44881 0 6.46761V10.6843C0 12.0936 1.14655 13.2401 2.55586 13.2401H12.9064C13.1976 13.2401 13.4337 13.004 13.4337 12.7128V11.6243H16.9453V12.706C16.9453 12.9972 17.1814 13.2334 17.4727 13.2334C17.7639 13.2334 18 12.9972 18 12.706V11.0969C18 10.8057 17.7639 10.5696 17.4727 10.5696ZM9.48414 1.91502C9.59186 1.83454 9.72439 1.80079 9.85764 1.82009C9.99074 1.83936 10.1083 1.90932 10.1888 2.01704L11.0655 3.19048C11.146 3.29824 11.1797 3.43085 11.1604 3.56395C11.1412 3.69705 11.0712 3.81468 10.9634 3.89516L10.4819 4.25487C10.1417 3.48791 9.63028 2.81326 8.99641 2.27941L9.48414 1.91502ZM12.379 12.1855H2.55586C1.72811 12.1855 1.05469 11.512 1.05469 10.6843V6.46761C1.05469 4.03037 3.03754 2.04755 5.47478 2.04755C7.91202 2.04755 9.89487 4.0304 9.89487 6.46764V9.48117C9.89487 9.7724 10.131 10.0085 10.4222 10.0085H12.379V12.1855H12.379Z" fill="#8E8E93"/>
</svg>
