<svg width="18" height="18" viewBox="0 0 18 18" fill="none" xmlns="http://www.w3.org/2000/svg">
<path d="M17.691 16.465H15.2848V1.22595C15.2848 1.14998 15.2568 1.07669 15.2062 1.02006C15.1556 0.963431 15.0859 0.927444 15.0104 0.918975L6.88567 0.00194478C6.84244 -0.00292852 6.79866 0.00138197 6.7572 0.0145944C6.71574 0.0278068 6.67754 0.0496235 6.6451 0.0786168C6.61265 0.10761 6.5867 0.143127 6.56892 0.182844C6.55115 0.22256 6.54197 0.265582 6.54197 0.309093V0.916856H3.02433C2.94235 0.916856 2.86373 0.94942 2.80577 1.00739C2.7478 1.06535 2.71524 1.14397 2.71524 1.22595V16.465H0.309091C0.227115 16.465 0.148497 16.4976 0.0905309 16.5556C0.032565 16.6135 0 16.6922 0 16.7741C0 16.8561 0.032565 16.9347 0.0905309 16.9927C0.148497 17.0507 0.227115 17.0832 0.309091 17.0832H6.54197V17.691C6.54197 17.773 6.57453 17.8516 6.6325 17.9095C6.69046 17.9675 6.76908 18.0001 6.85106 18.0001C6.86286 18.0002 6.87466 17.9995 6.88638 17.9981L14.9934 17.0832H17.6915C17.7735 17.0832 17.8521 17.0507 17.9101 16.9927C17.968 16.9347 18.0006 16.8561 18.0006 16.7741C18.0006 16.6922 17.968 16.6135 17.9101 16.5556C17.8521 16.4976 17.7735 16.465 17.6915 16.465H17.691ZM3.33342 1.53504H6.54197V2.32985H4.43714C4.35517 2.32985 4.27655 2.36241 4.21858 2.42038C4.16061 2.47834 4.12805 2.55696 4.12805 2.63894V16.465H3.33324L3.33342 1.53504ZM4.74641 16.465V2.94803H6.54197V16.465H4.74641ZM7.16015 0.654923L14.6667 1.50272V16.4981L7.16015 17.3459V0.654923Z" fill="black"/>
<path d="M8.49017 8.0802C8.30824 8.0802 8.13039 8.13415 7.97912 8.23522C7.82785 8.3363 7.70995 8.47996 7.64033 8.64804C7.57071 8.81612 7.55249 9.00108 7.58799 9.17951C7.62348 9.35795 7.71109 9.52185 7.83973 9.65049C7.96838 9.77914 8.13228 9.86675 8.31071 9.90224C8.48915 9.93773 8.6741 9.91951 8.84218 9.84989C9.01026 9.78027 9.15393 9.66237 9.255 9.5111C9.35608 9.35983 9.41003 9.18199 9.41003 9.00006C9.40974 8.75618 9.31274 8.52238 9.1403 8.34993C8.96785 8.17748 8.73404 8.08048 8.49017 8.0802ZM8.49017 9.30173C8.4305 9.30173 8.37218 9.28404 8.32257 9.25089C8.27296 9.21774 8.23429 9.17063 8.21146 9.1155C8.18863 9.06038 8.18265 8.99972 8.19429 8.9412C8.20593 8.88268 8.23466 8.82893 8.27685 8.78674C8.31904 8.74455 8.3728 8.71582 8.43132 8.70418C8.48983 8.69254 8.55049 8.69851 8.60561 8.72135C8.66074 8.74418 8.70785 8.78285 8.741 8.83246C8.77415 8.88207 8.79184 8.94039 8.79184 9.00006C8.79175 9.08004 8.75994 9.15671 8.70338 9.21327C8.64683 9.26982 8.57015 9.30164 8.49017 9.30173Z" fill="black"/>
</svg>
