<svg width="16" height="17" viewBox="0 0 16 17" fill="none" xmlns="http://www.w3.org/2000/svg">
<path d="M16 7.625C16 7.23078 15.8392 6.85947 15.5471 6.5795C15.2624 6.30659 14.8905 6.15625 14.5 6.15625H2.96875V3.55687C2.96875 3.0915 3.133 2.65594 3.43116 2.33053C3.71894 2.01662 4.09853 1.84375 4.5 1.84375C5.23531 1.84375 5.78959 2.26266 5.96909 2.90625H5.75C5.49113 2.90625 5.28125 3.11613 5.28125 3.375C5.28125 3.63387 5.49113 3.84375 5.75 3.84375H7.25C7.50887 3.84375 7.71875 3.63387 7.71875 3.375C7.71875 3.11613 7.50887 2.90625 7.25 2.90625H6.928C6.83856 2.394 6.60231 1.93581 6.23981 1.58588C5.78581 1.14763 5.16794 0.90625 4.5 0.90625C3.83262 0.90625 3.20762 1.18706 2.74003 1.69712C2.28297 2.19597 2.03125 2.85644 2.03125 3.55687V6.15625H1.5C1.1095 6.15625 0.737625 6.30659 0.452875 6.5795C0.160812 6.85947 0 7.23078 0 7.625C0 8.01922 0.160812 8.39053 0.452875 8.6705C0.620188 8.83084 0.817688 8.9485 1.03125 9.01859V11.7831C1.03125 13.138 1.85678 14.3037 3.03125 14.8038V15.625C3.03125 15.8839 3.24113 16.0938 3.5 16.0938C3.75887 16.0938 3.96875 15.8839 3.96875 15.625V15.0463C4.08175 15.0582 4.19641 15.0643 4.3125 15.0643H11.6875C11.8036 15.0643 11.9183 15.0582 12.0312 15.0463V15.625C12.0312 15.8839 12.2411 16.0938 12.5 16.0938C12.7589 16.0938 12.9688 15.8839 12.9688 15.625V14.8038C14.1432 14.3037 14.9688 13.138 14.9688 11.7831V9.01859C15.1823 8.9485 15.3798 8.83087 15.5471 8.6705C15.8392 8.39053 16 8.01922 16 7.625ZM14.0312 11.7831C14.0312 13.0754 12.9798 14.1268 11.6875 14.1268H4.3125C3.02016 14.1268 1.96875 13.0754 1.96875 11.7831V9.09375H14.0312V11.7831ZM14.5 8.15625H1.5C1.20034 8.15625 0.9375 7.908 0.9375 7.625C0.9375 7.342 1.20034 7.09375 1.5 7.09375H14.5C14.7997 7.09375 15.0625 7.342 15.0625 7.625C15.0625 7.908 14.7997 8.15625 14.5 8.15625Z" fill="#8E8E93"/>
</svg>
