<svg width="18" height="18" viewBox="0 0 18 18" fill="none" xmlns="http://www.w3.org/2000/svg">
<path d="M4.6369 0.554572C4.60629 0.501193 4.56213 0.456839 4.50889 0.425995C4.45565 0.39515 4.3952 0.378906 4.33367 0.378906C4.27214 0.378906 4.2117 0.39515 4.15845 0.425995C4.10521 0.456839 4.06105 0.501193 4.03045 0.554572L0.1523 7.3706C0.121562 7.42384 0.105408 7.48424 0.105469 7.54572C0.10553 7.60719 0.121802 7.66756 0.152646 7.72074C0.183489 7.77392 0.227812 7.81802 0.281142 7.8486C0.334473 7.87918 0.394925 7.89515 0.4564 7.89491H8.21094C8.27315 7.89673 8.33472 7.8819 8.38929 7.85197C8.44385 7.82203 8.48943 7.77807 8.52132 7.72462C8.55321 7.67117 8.57026 7.61018 8.57069 7.54794C8.57112 7.48571 8.55492 7.42448 8.52378 7.3706L4.6369 0.554572ZM1.05586 7.19583L4.3293 1.42842L7.60973 7.19583H1.05586ZM11.6696 7.89491H15.8641C16.2349 7.89491 16.5906 7.7476 16.8528 7.4854C17.115 7.22319 17.2623 6.86757 17.2623 6.49675V2.30227C17.2623 1.93146 17.115 1.57583 16.8528 1.31362C16.5906 1.05142 16.2349 0.904112 15.8641 0.904112H11.6696C11.2988 0.904112 10.9432 1.05142 10.681 1.31362C10.4188 1.57583 10.2715 1.93146 10.2715 2.30227V6.49675C10.2715 6.86757 10.4188 7.22319 10.681 7.4854C10.9432 7.7476 11.2988 7.89491 11.6696 7.89491ZM10.9706 2.30227C10.9706 2.11686 11.0442 1.93905 11.1753 1.80795C11.3064 1.67684 11.4842 1.60319 11.6696 1.60319H15.8641C16.0495 1.60319 16.2273 1.67684 16.3584 1.80795C16.4895 1.93905 16.5632 2.11686 16.5632 2.30227V6.49675C16.5632 6.68216 16.4895 6.85997 16.3584 6.99107C16.2273 7.12218 16.0495 7.19583 15.8641 7.19583H11.6696C11.4842 7.19583 11.3064 7.12218 11.1753 6.99107C11.0442 6.85997 10.9706 6.68216 10.9706 6.49675V2.30227ZM17.5087 12.542L14.7124 9.74572C14.5882 9.62154 14.4408 9.52303 14.2786 9.45582C14.1164 9.38861 13.9425 9.35402 13.7669 9.35402C13.5913 9.35402 13.4174 9.38861 13.2552 9.45582C13.0929 9.52303 12.9455 9.62154 12.8214 9.74572L10.0251 12.542C9.7751 12.7932 9.63479 13.1332 9.63479 13.4875C9.63479 13.8419 9.7751 14.1819 10.0251 14.4331L12.8214 17.2294C12.9455 17.3536 13.0929 17.4521 13.2552 17.5193C13.4174 17.5865 13.5913 17.6211 13.7669 17.6211C13.9425 17.6211 14.1164 17.5865 14.2786 17.5193C14.4408 17.4521 14.5882 17.3536 14.7124 17.2294L17.5087 14.4331C17.7582 14.1816 17.8983 13.8418 17.8983 13.4875C17.8983 13.1333 17.7582 12.7935 17.5087 12.542ZM17.0141 13.9402L14.2178 16.7365C14.0979 16.8556 13.9358 16.9225 13.7669 16.9225C13.5979 16.9225 13.4358 16.8556 13.316 16.7365L10.5197 13.9402C10.4603 13.8811 10.4131 13.8108 10.381 13.7334C10.3488 13.6561 10.3323 13.5731 10.3323 13.4893C10.3323 13.4055 10.3488 13.3225 10.381 13.2451C10.4131 13.1678 10.4603 13.0975 10.5197 13.0384L13.316 10.2421C13.4371 10.1254 13.5987 10.0603 13.7669 10.0603C13.935 10.0603 14.0966 10.1254 14.2178 10.2421L17.0141 13.0384C17.1336 13.158 17.2008 13.3202 17.2008 13.4893C17.2008 13.6584 17.1336 13.8206 17.0141 13.9402ZM4.3293 9.64261C3.56884 9.64261 2.82546 9.86811 2.19317 10.2906C1.56087 10.7131 1.06806 11.3136 0.777041 12.0162C0.486027 12.7187 0.409884 13.4918 0.558242 14.2377C0.7066 14.9835 1.07279 15.6686 1.61052 16.2063C2.14824 16.7441 2.83335 17.1102 3.57919 17.2586C4.32504 17.407 5.09812 17.3308 5.8007 17.0398C6.50327 16.7488 7.10376 16.256 7.52625 15.6237C7.94874 14.9914 8.17424 14.248 8.17424 13.4875C8.17424 12.9826 8.07479 12.4826 7.88156 12.0162C7.68833 11.5497 7.40512 11.1258 7.04808 10.7688C6.69105 10.4117 6.26719 10.1285 5.8007 9.93529C5.33421 9.74206 4.83423 9.64261 4.3293 9.64261ZM4.3293 16.6334C3.70711 16.6334 3.09889 16.4489 2.58156 16.1032C2.06422 15.7576 1.66101 15.2662 1.42291 14.6914C1.1848 14.1166 1.12251 13.4841 1.24389 12.8738C1.36527 12.2636 1.66489 11.703 2.10484 11.2631C2.5448 10.8231 3.10534 10.5235 3.71557 10.4021C4.32581 10.2808 4.95834 10.3431 5.53317 10.5812C6.108 10.8193 6.59932 11.2225 6.94499 11.7398C7.29066 12.2571 7.47516 12.8654 7.47516 13.4875C7.47516 14.3219 7.14372 15.122 6.55376 15.712C5.9638 16.302 5.16364 16.6334 4.3293 16.6334Z" fill="#8E8E93" stroke="#8E8E93" stroke-width="0.3"/>
</svg>
