<svg width="16" height="17" viewBox="0 0 16 17" fill="none" xmlns="http://www.w3.org/2000/svg">
<path d="M14.1805 7.67821V3.22946C14.1805 2.32484 13.4445 1.58887 12.5399 1.58887H3.46003C2.55541 1.58887 1.8195 2.32484 1.8195 3.22946V7.67821C0.777125 7.92896 0 8.86855 0 9.98677V13.305C0 13.5682 0.213406 13.7816 0.476656 13.7816H1.81947V14.9345C1.81947 15.1977 2.03288 15.4111 2.29612 15.4111C2.55937 15.4111 2.77278 15.1977 2.77278 14.9345V13.7816H13.2272V14.9345C13.2272 15.1977 13.4406 15.4111 13.7038 15.4111C13.9671 15.4111 14.1805 15.1977 14.1805 14.9345V13.7816H15.5233C15.7865 13.7816 15.9999 13.5682 15.9999 13.305V9.98677C16 8.86855 15.2229 7.92896 14.1805 7.67821ZM2.77281 3.22946C2.77281 2.85052 3.08113 2.54221 3.46003 2.54221H12.5399C12.9189 2.54221 13.2272 2.85052 13.2272 3.22946V7.61202H11.652V6.86002C11.652 5.61409 10.6384 4.60046 9.39247 4.60046H6.60759C5.36166 4.60046 4.34803 5.61412 4.34803 6.86002V7.61199H2.77281V3.22946ZM10.6987 6.86002V7.61199H5.30128V6.86002C5.30128 6.13974 5.88725 5.55377 6.60753 5.55377H9.39244C10.1127 5.55374 10.6987 6.13977 10.6987 6.86002ZM0.953313 12.8283V9.98677C0.953313 9.20299 1.59097 8.56534 2.37475 8.56534H13.6252C14.409 8.56534 15.0466 9.20299 15.0466 9.98677V12.8283H0.953313Z" fill="#8E8E93"/>
</svg>
