<svg width="50" height="50" viewBox="0 0 50 50" fill="none" xmlns="http://www.w3.org/2000/svg">
<path d="M49.9216 23.8206C49.8503 23.286 49.3587 22.9105 48.8245 22.9818C48.2898 23.0531 47.9144 23.5443 47.9856 24.079C48.0263 24.3835 48.0469 24.6934 48.0469 25C48.0469 28.2857 45.7232 31.4176 41.5041 33.8187C37.1115 36.3186 31.2503 37.6953 25 37.6953C21.0505 37.6953 17.2568 37.145 13.8904 36.1096C12.855 32.7432 12.3047 28.9495 12.3047 25C12.3047 18.7498 13.6814 12.8885 16.1812 8.4959C18.5824 4.27666 21.7143 1.95312 25 1.95312C27.7572 1.95312 29.9527 3.54316 31.5336 5.29131H30.5334C29.9941 5.29131 29.5568 5.72852 29.5568 6.26787C29.5568 6.80723 29.9941 7.24443 30.5334 7.24443H33.5632C34.1024 7.24443 34.5397 6.80723 34.5397 6.26787V3.23799C34.5397 2.69863 34.1024 2.26143 33.5632 2.26143C33.0239 2.26143 32.5866 2.69863 32.5866 3.23799V3.56699C30.3218 1.2498 27.6938 0 25 0C20.9818 0 17.2472 2.67412 14.4837 7.52979C11.819 12.2121 10.3516 18.4164 10.3516 25C10.3516 28.6174 10.7955 32.1195 11.6367 35.3183C10.525 34.8758 9.47383 34.3753 8.4959 33.8187C4.27676 31.4176 1.95312 28.2857 1.95312 25C1.95312 22.2265 3.56191 20.021 5.32227 18.438V19.4331C5.32227 19.9725 5.75957 20.4097 6.29883 20.4097C6.83809 20.4097 7.27539 19.9725 7.27539 19.4331V16.4032C7.27539 15.8639 6.83809 15.4267 6.29883 15.4267H3.26904C2.72978 15.4267 2.29248 15.8639 2.29248 16.4032C2.29248 16.9426 2.72978 17.3798 3.26904 17.3798H3.60186C1.2625 19.6523 0 22.2928 0 25C0 29.0181 2.67412 32.7528 7.52979 35.5162C8.996 36.3506 10.6114 37.0676 12.341 37.6589C12.9323 39.3885 13.6493 41.004 14.4837 42.4701C17.2472 47.3259 20.9818 50 25 50C27.3036 50 29.5912 49.0841 31.6153 47.3512C32.025 47.0004 32.0729 46.384 31.7222 45.9742C31.3715 45.5646 30.755 45.5167 30.3452 45.8674C28.656 47.3137 26.8575 48.0469 25 48.0469C21.7143 48.0469 18.5824 45.7233 16.1812 41.5041C15.6247 40.5261 15.1241 39.4749 14.6817 38.3633C17.8805 39.2045 21.3826 39.6484 25 39.6484C31.5836 39.6484 37.7879 38.181 42.4702 35.5162C47.3259 32.7528 50 29.0181 50 25C49.9998 24.6056 49.9737 24.2116 49.9216 23.8206Z" fill="white"/>
<path d="M48.7213 20.3243L48.7172 20.3169C48.458 19.8488 47.8693 19.6763 47.3979 19.9315C46.9236 20.1884 46.7474 20.7811 47.0043 21.2553L47.0123 21.2697C47.0743 21.382 47.1579 21.481 47.2582 21.5609C47.3584 21.6409 47.4735 21.7003 47.5968 21.7358C47.72 21.7712 47.8491 21.782 47.9765 21.7676C48.104 21.7531 48.2273 21.7137 48.3396 21.6516C48.8114 21.3905 48.9824 20.7963 48.7213 20.3243ZM34.121 42.9507C33.6829 42.6369 33.0694 42.7434 32.755 43.1804L32.75 43.1873C32.4393 43.6271 32.5386 44.2419 32.9777 44.5536C33.1413 44.6699 33.3371 44.7322 33.5378 44.7318C33.8461 44.7318 34.1509 44.5868 34.3427 44.318C34.6554 43.8796 34.5588 43.2644 34.121 42.9507ZM31.8864 22.187C31.8698 20.8137 30.7427 19.6964 29.3738 19.6964H25.9294V17.1206C25.9295 16.975 25.9874 16.8353 26.0904 16.7323C26.1934 16.6293 26.3331 16.5714 26.4787 16.5713H29.3103C29.8495 16.5713 30.2868 16.1341 30.2868 15.5947C30.2868 15.0554 29.8495 14.6182 29.3103 14.6182H26.4787C25.0988 14.6182 23.9763 15.7407 23.9763 17.1206V25.0043C23.9763 26.3842 25.0988 27.5067 26.4787 27.5067H29.3738C30.7427 27.5067 31.8698 26.3895 31.8864 25.0161L31.8865 25.0043V22.1988L31.8864 22.187ZM29.9332 24.9969C29.9271 25.3042 29.6771 25.5535 29.3737 25.5535H26.4786C26.333 25.5534 26.1933 25.4955 26.0903 25.3925C25.9873 25.2895 25.9294 25.1498 25.9293 25.0042V21.6494H29.3737C29.6771 21.6494 29.9272 21.8988 29.9332 22.2062V24.9969ZM38.3684 14.6182H35.4631C34.0832 14.6182 32.9606 15.7407 32.9606 17.1206V25.0043C32.9606 26.3842 34.0832 27.5067 35.4631 27.5067H38.3684C39.7482 27.5067 40.8708 26.3842 40.8708 25.0043V17.1206C40.8708 15.7407 39.7482 14.6182 38.3684 14.6182ZM38.9177 25.0043C38.9175 25.1499 38.8596 25.2896 38.7566 25.3926C38.6537 25.4956 38.514 25.5535 38.3684 25.5536H35.4631C35.3174 25.5535 35.1778 25.4956 35.0748 25.3926C34.9718 25.2896 34.9139 25.1499 34.9138 25.0043V17.1206C34.9139 16.975 34.9718 16.8353 35.0748 16.7323C35.1778 16.6293 35.3174 16.5714 35.4631 16.5713H38.3684C38.514 16.5714 38.6537 16.6293 38.7566 16.7323C38.8596 16.8353 38.9175 16.975 38.9177 17.1206V25.0043ZM20.398 14.6182H17.9048C16.5249 14.6182 15.4023 15.7407 15.4023 17.1206V17.1551C15.4023 17.6944 15.8396 18.1316 16.3789 18.1316C16.9182 18.1316 17.3555 17.6944 17.3555 17.1551V17.1206C17.3556 16.975 17.4135 16.8353 17.5165 16.7323C17.6195 16.6293 17.7591 16.5714 17.9048 16.5713H20.398C20.5437 16.5714 20.6833 16.6293 20.7863 16.7323C20.8893 16.8353 20.9472 16.975 20.9474 17.1206V20.0859H18.4425C17.9032 20.0859 17.4659 20.5231 17.4659 21.0625C17.4659 21.6019 17.9032 22.0391 18.4425 22.0391H20.9474V25.0043C20.9472 25.1499 20.8893 25.2896 20.7863 25.3926C20.6833 25.4956 20.5437 25.5535 20.398 25.5536H17.9048C17.7591 25.5535 17.6195 25.4956 17.5165 25.3926C17.4135 25.2896 17.3556 25.1499 17.3555 25.0043V24.8691C17.3555 24.3298 16.9182 23.8926 16.3789 23.8926C15.8396 23.8926 15.4023 24.3298 15.4023 24.8691V25.0043C15.4023 26.3842 16.5249 27.5067 17.9048 27.5067H20.398C21.7779 27.5067 22.9005 26.3842 22.9005 25.0043V17.1206C22.9005 15.7407 21.7779 14.6182 20.398 14.6182ZM44.8193 13.0044C43.391 13.0044 42.229 14.1664 42.229 15.5947C42.229 17.023 43.391 18.1851 44.8193 18.1851C46.2477 18.1851 47.4097 17.023 47.4097 15.5947C47.4097 14.1664 46.2477 13.0044 44.8193 13.0044ZM44.8193 16.2318C44.6504 16.2316 44.4884 16.1644 44.369 16.045C44.2495 15.9255 44.1823 15.7636 44.1821 15.5946C44.1823 15.4257 44.2495 15.2637 44.369 15.1443C44.4884 15.0248 44.6504 14.9576 44.8193 14.9574C44.9883 14.9576 45.1502 15.0248 45.2697 15.1443C45.3892 15.2637 45.4564 15.4257 45.4565 15.5946C45.4563 15.7636 45.3891 15.9255 45.2697 16.045C45.1502 16.1644 44.9883 16.2316 44.8193 16.2318Z" fill="white"/>
</svg>
