<svg width="19" height="18" viewBox="0 0 19 18" fill="none" xmlns="http://www.w3.org/2000/svg">
<path fill-rule="evenodd" clip-rule="evenodd" d="M15.125 7.31249C15.125 7.46168 15.0657 7.60475 14.9602 7.71024C14.8548 7.81573 14.7117 7.87499 14.5625 7.87499H11.1875C11.0383 7.87499 10.8952 7.81573 10.7898 7.71024C10.6843 7.60475 10.625 7.46168 10.625 7.31249V3.93749C10.625 3.78831 10.6843 3.64523 10.7898 3.53975C10.8952 3.43426 11.0383 3.37499 11.1875 3.37499C11.3367 3.37499 11.4798 3.43426 11.5852 3.53975C11.6907 3.64523 11.75 3.78831 11.75 3.93749V5.95499L15.29 2.41499C15.3415 2.35973 15.4036 2.3154 15.4726 2.28466C15.5416 2.25391 15.6161 2.23738 15.6916 2.23605C15.7671 2.23472 15.8422 2.24861 15.9122 2.2769C15.9822 2.30519 16.0459 2.3473 16.0993 2.40071C16.1527 2.45413 16.1948 2.51775 16.2231 2.5878C16.2514 2.65784 16.2653 2.73286 16.2639 2.80839C16.2626 2.88391 16.2461 2.9584 16.2153 3.0274C16.1846 3.0964 16.1403 3.1585 16.085 3.20999L12.545 6.74999H14.5625C14.7117 6.74999 14.8548 6.80926 14.9602 6.91475C15.0657 7.02024 15.125 7.16331 15.125 7.31249Z" fill="#1C1C1E"/>
<path fill-rule="evenodd" clip-rule="evenodd" d="M1.625 3.375C1.625 2.77826 1.86205 2.20597 2.28401 1.78401C2.70597 1.36205 3.27826 1.125 3.875 1.125H4.904C5.549 1.125 6.1115 1.5645 6.26825 2.19L7.097 5.50725C7.16416 5.77575 7.15059 6.05809 7.058 6.31892C6.96542 6.57974 6.79792 6.80744 6.5765 6.9735L5.60675 7.701C5.5055 7.77675 5.48375 7.88775 5.51225 7.965C5.93553 9.11614 6.60395 10.1615 7.47121 11.0288C8.33847 11.8961 9.38386 12.5645 10.535 12.9877C10.6123 13.0162 10.7225 12.9945 10.799 12.8932L11.5265 11.9235C11.6926 11.7021 11.9203 11.5346 12.1811 11.442C12.4419 11.3494 12.7243 11.3358 12.9928 11.403L16.31 12.2318C16.9355 12.3885 17.375 12.951 17.375 13.5968V14.625C17.375 15.2217 17.1379 15.794 16.716 16.216C16.294 16.6379 15.7217 16.875 15.125 16.875H13.4375C6.914 16.875 1.625 11.586 1.625 5.0625V3.375Z" fill="#1C1C1E"/>
</svg>
