<svg width="16" height="15" viewBox="0 0 16 15" fill="none" xmlns="http://www.w3.org/2000/svg">
<path d="M11.375 5.75H9.68749M3.66949 13.0625C3.66124 13.025 3.64849 12.9875 3.63049 12.9515C3.18724 12.0515 2.93749 11.039 2.93749 9.96875C2.93587 8.89238 3.19282 7.83136 3.68674 6.875M3.66949 13.0625C3.72649 13.3362 3.53224 13.625 3.23824 13.625H2.55724C1.89049 13.625 1.27249 13.2365 1.07824 12.599C0.82399 11.7665 0.68749 10.8837 0.68749 9.96875C0.68749 8.804 0.90874 7.69175 1.31074 6.67025C1.54024 6.08975 2.12524 5.75 2.74999 5.75H3.53974C3.89374 5.75 4.09849 6.167 3.91474 6.47C3.83434 6.60234 3.7578 6.73742 3.68674 6.875M3.66949 13.0625H4.63999C5.0027 13.0623 5.36307 13.1205 5.70724 13.235L8.04274 14.015C8.38691 14.1295 8.74728 14.1877 9.10999 14.1875H12.122C12.5855 14.1875 13.0347 14.0022 13.3257 13.6407C14.6143 12.0434 15.3156 10.0523 15.3125 8C15.3125 7.6745 15.2952 7.35275 15.2615 7.03625C15.1797 6.2705 14.4905 5.75 13.721 5.75H11.3765C10.913 5.75 10.6332 5.207 10.8327 4.7885C11.191 4.03444 11.3763 3.20985 11.375 2.375C11.375 1.92745 11.1972 1.49823 10.8807 1.18176C10.5643 0.86529 10.135 0.6875 9.68749 0.6875C9.53831 0.6875 9.39523 0.746763 9.28974 0.852252C9.18425 0.957741 9.12499 1.10082 9.12499 1.25V1.72475C9.12499 2.1545 9.04249 2.57975 8.88349 2.97875C8.65549 3.54875 8.18599 3.97625 7.64374 4.265C6.81128 4.7092 6.0807 5.32228 5.49874 6.065C5.12524 6.5405 4.57924 6.875 3.97474 6.875H3.68674" stroke="#8E8E93" stroke-linecap="round" stroke-linejoin="round"/>
</svg>
