<svg width="25" height="25" viewBox="0 0 25 25" fill="none" xmlns="http://www.w3.org/2000/svg">
<path d="M19.7016 18.3317H9.00246C8.5615 18.3317 8.2041 17.9743 8.2041 17.5333C8.2041 17.0923 8.5615 16.7349 9.00246 16.7349H19.7013C20.1423 16.7349 20.4997 17.0923 20.4997 17.5333C20.4997 17.9743 20.1426 18.3317 19.7016 18.3317Z" fill="#8E8E93"/>
<path d="M19.7016 13.3203H9.00246C8.5615 13.3203 8.2041 12.9629 8.2041 12.5219C8.2041 12.081 8.5615 11.7236 9.00246 11.7236H19.7013C20.1423 11.7236 20.4997 12.081 20.4997 12.5219C20.5 12.9629 20.1426 13.3203 19.7016 13.3203Z" fill="#8E8E93"/>
<path d="M19.7016 8.30919H9.00246C8.5615 8.30919 8.2041 7.95179 8.2041 7.51083C8.2041 7.06986 8.5615 6.71246 9.00246 6.71246H19.7013C20.1423 6.71246 20.4997 7.06986 20.4997 7.51083C20.4997 7.95179 20.1426 8.30919 19.7016 8.30919Z" fill="#8E8E93"/>
<path d="M5.5722 8.64465C6.16436 8.64465 6.6444 8.16461 6.6444 7.57245C6.6444 6.98029 6.16436 6.50024 5.5722 6.50024C4.98004 6.50024 4.5 6.98029 4.5 7.57245C4.5 8.16461 4.98004 8.64465 5.5722 8.64465Z" fill="#8E8E93"/>
<path d="M5.5722 13.5942C6.16436 13.5942 6.6444 13.1141 6.6444 12.522C6.6444 11.9298 6.16436 11.4498 5.5722 11.4498C4.98004 11.4498 4.5 11.9298 4.5 12.522C4.5 13.1141 4.98004 13.5942 5.5722 13.5942Z" fill="#8E8E93"/>
<path d="M5.5722 18.5438C6.16436 18.5438 6.6444 18.0637 6.6444 17.4716C6.6444 16.8794 6.16436 16.3994 5.5722 16.3994C4.98004 16.3994 4.5 16.8794 4.5 17.4716C4.5 18.0637 4.98004 18.5438 5.5722 18.5438Z" fill="#8E8E93"/>
</svg>
