<svg width="20" height="21" viewBox="0 0 20 21" fill="none" xmlns="http://www.w3.org/2000/svg">
<path d="M4.43242 12.5863L3.73625 15.1852L1.19176 15.239C0.431328 13.8286 0 12.2149 0 10.5C0 8.84179 0.403281 7.27804 1.11812 5.90112H1.11867L3.38398 6.31644L4.37633 8.56815C4.16863 9.17366 4.05543 9.82366 4.05543 10.5C4.05551 11.2341 4.18848 11.9374 4.43242 12.5863Z" fill="#FBBB00"/>
<path d="M19.8242 8.6319C19.939 9.23682 19.9989 9.86155 19.9989 10.5C19.9989 11.216 19.9236 11.9143 19.7802 12.588C19.2934 14.8803 18.0214 16.8819 16.2594 18.2984L16.2588 18.2978L13.4055 18.1522L13.0017 15.6314C14.1709 14.9456 15.0847 13.8726 15.566 12.588H10.2188V8.6319H19.8242Z" fill="#518EF8"/>
<path d="M16.2595 18.2978L16.2601 18.2984C14.5464 19.6758 12.3694 20.5 9.99965 20.5C6.19141 20.5 2.88043 18.3715 1.19141 15.239L4.43207 12.5863C5.27656 14.8401 7.45074 16.4445 9.99965 16.4445C11.0952 16.4445 12.1216 16.1484 13.0024 15.6313L16.2595 18.2978Z" fill="#28B446"/>
<path d="M16.382 2.80219L13.1425 5.45437C12.2309 4.88461 11.1534 4.55547 9.99906 4.55547C7.39246 4.55547 5.17762 6.23348 4.37543 8.56812L1.11773 5.90109H1.11719C2.78148 2.6923 6.13422 0.5 9.99906 0.5C12.4254 0.5 14.6502 1.3643 16.382 2.80219Z" fill="#F14336"/>
</svg>
