<svg width="30" height="30" viewBox="0 0 30 30" fill="none" xmlns="http://www.w3.org/2000/svg">
<mask id="mask0_1532_28657" style="mask-type:luminance" maskUnits="userSpaceOnUse" x="0" y="0" width="30" height="30">
<path d="M0 8.7738e-05H29.9999V30H0V8.7738e-05Z" fill="white"/>
</mask>
<g mask="url(#mask0_1532_28657)">
<path d="M4.10364 11.9102C3.76034 11.5674 3.76034 11.0108 4.10364 10.6674C4.44647 10.3241 5.00311 10.3241 5.34641 10.6674L6.90617 12.2272V7.73771C6.90617 7.25197 7.29992 6.85881 7.78508 6.85881C8.27023 6.85881 8.66398 7.25197 8.66398 7.73771V9.29747L10.2237 7.73771C10.5672 7.39435 11.1238 7.39435 11.4665 7.73771C11.8099 8.08107 11.8099 8.63771 11.4665 8.98054L8.66398 11.7837V19.3423C11.9824 18.9612 14.6194 16.3915 15.3865 13.211C15.8493 11.2938 15.5927 9.30685 14.6235 7.30587C13.8853 5.78127 12.7556 4.2654 11.1701 2.67224C10.1646 1.6615 9.24347 0.848803 8.35461 0.187281C8.03093 -0.05723 7.59318 -0.0673084 7.25539 0.187281C6.36653 0.848803 5.44602 1.6615 4.43997 2.67224C2.85449 4.2654 1.72474 5.78127 0.986463 7.30587C0.0173255 9.30685 -0.239314 11.2938 0.223575 13.211C0.991737 16.3956 3.62177 18.9394 6.90617 19.3388V14.7133L4.10364 11.9102Z" fill="white"/>
<path d="M26.4843 24.3286H17.4615V22.5708H26.4843V24.3286ZM26.4843 28.2422H17.4615V26.0865H26.4843V28.2422ZM29.121 22.5708C29.6062 22.5708 29.9999 22.1771 29.9999 21.6919V18.1763C29.9999 17.6911 29.6062 17.2974 29.121 17.2974H14.8248C14.3396 17.2974 13.9459 17.6911 13.9459 18.1763V21.6919C13.9459 22.1771 14.3396 22.5708 14.8248 22.5708H15.7037V24.3286H14.8248C14.3394 24.3286 13.9459 24.7221 13.9459 25.2075C13.9459 25.693 14.3394 26.0864 14.8248 26.0864H15.7037V28.2422H8.66482V19.3423C8.08574 19.4091 7.4957 19.411 6.90701 19.3388V28.2422H0.878904C0.393514 28.2422 0 28.6356 0 29.1211C0 29.6065 0.393514 30 0.878904 30H29.121C29.6064 30 29.9999 29.6065 29.9999 29.1211C29.9999 28.6356 29.6064 28.2422 29.121 28.2422H28.2421V26.0864H29.121C29.6064 26.0864 29.9999 25.693 29.9999 25.2075C29.9999 24.7221 29.6064 24.3286 29.121 24.3286H28.2421V22.5708H29.121Z" fill="white"/>
</g>
</svg>
