<svg width="30" height="26" viewBox="0 0 30 26" fill="none" xmlns="http://www.w3.org/2000/svg">
<path d="M16.9255 18.7978C16.3915 19.1253 15.7077 19.3057 15 19.3057C14.2922 19.3057 13.6084 19.1253 13.0745 18.7978L4.35714 13.4514C4.35714 13.4514 3.57031 12.9691 3.57031 14.0617V19.4004C3.57031 22.2128 8.68746 25.2447 14.9997 25.2447C21.312 25.2447 26.4292 22.2129 26.4292 19.4004V13.7607C26.4292 12.8837 25.8698 13.3122 25.8698 13.3122L16.9255 18.7978Z" fill="white"/>
<path d="M29.4976 9.19854C30.1675 8.78776 30.1675 8.11553 29.4976 7.70467L16.2178 1.06395C15.548 0.653164 14.4519 0.653164 13.7821 1.06395L0.502369 7.70467C-0.167456 8.11545 -0.167456 8.78768 0.502369 9.19854L13.7821 17.3431C14.4519 17.7539 15.548 17.7539 16.2178 17.3431M28.9484 21.2707V12.2757C28.9484 12.2757 28.9547 11.8496 28.7019 11.9903C28.4991 12.1032 28.002 12.3803 27.8268 12.5326C27.6246 12.7084 27.6702 13.1028 27.6702 13.1028V21.2707C27.6702 21.3867 27.5706 21.442 27.523 21.47C27.064 21.7399 26.7553 22.238 26.7553 22.8091C26.7553 23.6674 27.451 24.3631 28.3093 24.3631C29.1676 24.3631 29.8633 23.6674 29.8633 22.8091C29.8633 22.2358 29.5524 21.7361 29.0904 21.4669C29.0444 21.4401 28.9484 21.3866 28.9484 21.2707Z" fill="white"/>
</svg>
