<svg width="31" height="24" viewBox="0 0 31 24" fill="none" xmlns="http://www.w3.org/2000/svg">
<path d="M1.6875 17.3125L8.99608 10.0039C9.29207 9.70792 9.64346 9.47313 10.0302 9.31294C10.4169 9.15275 10.8314 9.0703 11.25 9.0703C11.6686 9.0703 12.0831 9.15275 12.4698 9.31294C12.8565 9.47313 13.2079 9.70792 13.5039 10.0039L20.8125 17.3125M18.6875 15.1875L20.6836 13.1914C20.9796 12.8954 21.331 12.6606 21.7177 12.5004C22.1044 12.3403 22.5189 12.2578 22.9375 12.2578C23.3561 12.2578 23.7706 12.3403 24.1573 12.5004C24.544 12.6606 24.8954 12.8954 25.1914 13.1914L29.3125 17.3125M3.8125 22.625H27.1875C27.7511 22.625 28.2916 22.4011 28.6901 22.0026C29.0886 21.6041 29.3125 21.0636 29.3125 20.5V3.5C29.3125 2.93641 29.0886 2.39591 28.6901 1.9974C28.2916 1.59888 27.7511 1.375 27.1875 1.375H3.8125C3.24891 1.375 2.70841 1.59888 2.3099 1.9974C1.91138 2.39591 1.6875 2.93641 1.6875 3.5V20.5C1.6875 21.0636 1.91138 21.6041 2.3099 22.0026C2.70841 22.4011 3.24891 22.625 3.8125 22.625ZM18.6875 6.6875H18.6988V6.69883H18.6875V6.6875ZM19.2187 6.6875C19.2187 6.8284 19.1628 6.96352 19.0632 7.06315C18.9635 7.16278 18.8284 7.21875 18.6875 7.21875C18.5466 7.21875 18.4115 7.16278 18.3118 7.06315C18.2122 6.96352 18.1562 6.8284 18.1562 6.6875C18.1562 6.5466 18.2122 6.41148 18.3118 6.31185C18.4115 6.21222 18.5466 6.15625 18.6875 6.15625C18.8284 6.15625 18.9635 6.21222 19.0632 6.31185C19.1628 6.41148 19.2187 6.5466 19.2187 6.6875Z" stroke="white" stroke-width="1.5" stroke-linecap="round" stroke-linejoin="round"/>
</svg>
