<svg width="21" height="18" viewBox="0 0 21 18" fill="none" xmlns="http://www.w3.org/2000/svg">
<path d="M0.75 12.75L5.909 7.591C6.11793 7.38206 6.36597 7.21633 6.63896 7.10325C6.91194 6.99018 7.20452 6.93198 7.5 6.93198C7.79548 6.93198 8.08806 6.99018 8.36104 7.10325C8.63403 7.21633 8.88207 7.38206 9.091 7.591L14.25 12.75M12.75 11.25L14.159 9.841C14.3679 9.63206 14.616 9.46633 14.889 9.35325C15.1619 9.24018 15.4545 9.18198 15.75 9.18198C16.0455 9.18198 16.3381 9.24018 16.611 9.35325C16.884 9.46633 17.1321 9.63206 17.341 9.841L20.25 12.75M2.25 16.5H18.75C19.1478 16.5 19.5294 16.342 19.8107 16.0607C20.092 15.7794 20.25 15.3978 20.25 15V3C20.25 2.60218 20.092 2.22064 19.8107 1.93934C19.5294 1.65804 19.1478 1.5 18.75 1.5H2.25C1.85218 1.5 1.47064 1.65804 1.18934 1.93934C0.908035 2.22064 0.75 2.60218 0.75 3V15C0.75 15.3978 0.908035 15.7794 1.18934 16.0607C1.47064 16.342 1.85218 16.5 2.25 16.5ZM12.75 5.25H12.758V5.258H12.75V5.25ZM13.125 5.25C13.125 5.34946 13.0855 5.44484 13.0152 5.51517C12.9448 5.58549 12.8495 5.625 12.75 5.625C12.6505 5.625 12.5552 5.58549 12.4848 5.51517C12.4145 5.44484 12.375 5.34946 12.375 5.25C12.375 5.15054 12.4145 5.05516 12.4848 4.98484C12.5552 4.91451 12.6505 4.875 12.75 4.875C12.8495 4.875 12.9448 4.91451 13.0152 4.98484C13.0855 5.05516 13.125 5.15054 13.125 5.25Z" stroke="white" stroke-width="1.5" stroke-linecap="round" stroke-linejoin="round"/>
</svg>
