<svg width="20" height="30" viewBox="0 0 20 30" fill="none" xmlns="http://www.w3.org/2000/svg">
<path fill-rule="evenodd" clip-rule="evenodd" d="M6.38199 28.3012C6.16096 28.6584 5.80753 28.9137 5.39891 29.0112C4.99029 29.1087 4.55969 29.0405 4.20119 28.8215C3.84269 28.6025 3.58543 28.2505 3.48561 27.8425C3.38578 27.4344 3.45152 27.0034 3.66845 26.6437L7.31011 20.7353L8.07441 17.6429C8.11103 17.6856 8.14694 17.7287 8.18257 17.7723L10.6524 20.4288L10.3498 21.6516C10.315 21.8456 10.2443 22.0314 10.1414 22.1995L6.38199 28.3012ZM18.5295 26.8904L16.163 20.6221C16.0799 20.4006 15.9487 20.2003 15.7789 20.0356L12.0809 15.9417V9.225C12.0799 8.71559 11.8771 8.22733 11.5169 7.86712C11.1567 7.50692 10.6684 7.30412 10.159 7.30312C9.64109 7.30312 9.42148 7.44639 9.0006 7.65715L1.00788 12.2718C0.846952 12.365 0.705959 12.489 0.592949 12.6367C0.479939 12.7844 0.397127 12.9529 0.349241 13.1326C0.301355 13.3123 0.289335 13.4997 0.313864 13.684C0.338392 13.8684 0.398991 14.0461 0.492199 14.207C0.585409 14.3679 0.709402 14.5089 0.857101 14.6219C1.0048 14.7349 1.17331 14.8177 1.35302 14.8656C1.53272 14.9135 1.72009 14.9255 1.90444 14.901C2.08879 14.8765 2.26651 14.8159 2.42743 14.7227L8.23724 11.3684V15.8751C8.23724 16.7039 8.34353 16.6724 8.80126 17.2328L13.2621 22.0307L15.5238 28.0221C15.6739 28.4206 15.9761 28.7432 16.3641 28.9189C16.752 29.0946 17.1938 29.1089 17.5924 28.9588C17.9909 28.8088 18.3135 28.5065 18.4892 28.1186C18.6649 27.7306 18.6793 27.2888 18.5292 26.8903L18.5295 26.8904ZM10.9031 0.9375C11.3671 0.9375 11.8207 1.07509 12.2065 1.33286C12.5922 1.59063 12.8929 1.95701 13.0705 2.38567C13.248 2.81433 13.2945 3.28602 13.204 3.74108C13.1135 4.19615 12.89 4.61415 12.562 4.94223C12.2339 5.27032 11.8159 5.49374 11.3608 5.58426C10.9057 5.67478 10.4341 5.62832 10.0054 5.45076C9.57673 5.27321 9.21035 4.97252 8.95258 4.58674C8.6948 4.20096 8.55722 3.7474 8.55722 3.28342C8.55722 2.66124 8.80438 2.06455 9.24432 1.6246C9.68427 1.18466 10.281 0.9375 10.9031 0.9375ZM12.9012 13.3981V9.28811L14.7614 11.1973L18.6499 12.2936C19.0104 12.3936 19.3167 12.6322 19.5018 12.9573C19.687 13.2824 19.7361 13.6675 19.6382 14.0286C19.5404 14.3897 19.3036 14.6975 18.9797 14.8846C18.6557 15.0717 18.2709 15.1231 17.9092 15.0274L13.5008 13.834C13.3512 13.7954 13.2152 13.7163 13.1076 13.6055L12.9012 13.3981Z" fill="#FFA920"/>
</svg>
