<svg width="22" height="30" viewBox="0 0 22 30" fill="none" xmlns="http://www.w3.org/2000/svg">
<path d="M17.3768 22.7948C18.4644 22.8006 19.5891 22.4925 20.4207 21.7651C21.1947 21.0907 21.5594 20.0453 21.5623 19.0357C21.5642 18.0232 21.5722 17.0091 21.5543 15.9953C21.5143 14.4293 21.5997 12.8565 21.4725 11.293C21.2098 8.18393 20.5747 5.03266 19.0179 2.29432C18.6258 1.6353 18.1921 0.988107 17.6277 0.463322C17.3662 0.227776 17.0514 -0.00968744 16.682 0.00373581C12.9257 0.0014986 9.17007 0.00469461 5.41379 0.0014986C5.1236 -0.0154403 4.85257 0.113039 4.63461 0.294573C4.05837 0.765345 3.60581 1.36652 3.21813 1.99549C1.54694 4.75141 0.875458 7.98226 0.592611 11.1572C0.506319 12.5848 0.574394 14.0163 0.540836 15.4469C0.516547 16.6789 0.538279 17.9139 0.527093 19.1466C0.509515 19.818 0.679543 20.4962 1.04261 21.0639C1.81029 22.2751 3.30219 22.8156 4.68798 22.7948C3.19672 25.0039 1.51242 27.3392 0.00454541 29.5374L0.00390625 29.9948L2.29417 29.9932C2.78539 29.3741 3.18873 28.702 3.65982 28.0695L18.3845 28.0698L19.7546 29.9973L21.9925 29.9999L21.9963 29.5582L17.3768 22.7948ZM17.1224 20.1504C16.3627 20.0523 15.6759 19.3754 15.6989 18.5857C15.6398 17.8333 16.232 17.1407 16.9476 16.9733C17.8712 16.7288 18.9019 17.5121 18.8962 18.4716C18.9879 19.4198 18.0537 20.2696 17.1224 20.1504ZM2.34882 12.4567C2.30248 11.9527 2.33763 11.4474 2.31942 10.9434C2.24207 8.78638 2.63518 6.61117 3.48724 4.62581C3.91678 3.66189 4.46042 2.73313 5.20765 1.98047C5.53716 1.67237 5.93187 1.34127 6.41351 1.37259C9.50277 1.37706 12.5936 1.37578 15.6823 1.37355C16.0453 1.35117 16.3649 1.56435 16.6308 1.78647C17.2176 2.29272 17.6679 2.9364 18.0604 3.60117C19.3749 5.95567 19.8486 8.70967 19.7585 11.3835C19.7508 11.8849 19.8102 12.4138 19.5772 12.8792C19.3299 13.4414 18.745 13.862 18.124 13.8632C13.4073 13.8642 8.68939 13.8623 3.97303 13.8632C3.1833 13.8754 2.46068 13.2295 2.34882 12.4567ZM15.4825 23.8664L6.38698 23.8674L7.07189 22.8204L14.8551 22.8162L15.4825 23.8664ZM4.43134 20.1204C3.79278 19.9842 3.27343 19.448 3.16412 18.8052C3.01806 18.0129 3.57225 17.1868 4.34441 16.9861C5.28755 16.7016 6.35054 17.4878 6.36077 18.4716C6.44483 19.47 5.40197 20.3601 4.43134 20.1204ZM4.62086 26.7361C5.06223 26.0346 5.55921 25.3481 6.01848 24.66L15.9948 24.6533C16.4944 25.3261 16.9562 26.0253 17.4378 26.7106L4.62086 26.7361Z" fill="#FFA920"/>
<path d="M14.7915 5.068L13.1315 5.07152L11.1439 7.41739L9.1234 5.06705L7.43814 5.06641L7.4375 11.3344L9.2816 11.3287L9.28096 7.70855L11.0794 9.8323L12.8928 7.72996L12.896 11.3347C13.5285 11.3338 14.1693 11.3357 14.8024 11.3325L14.7915 5.068Z" fill="#FFA920"/>
</svg>
