<svg width="30" height="26" viewBox="0 0 30 26" fill="none" xmlns="http://www.w3.org/2000/svg">
<path d="M19.375 5.18754C20.75 5.18754 21.875 4.06254 21.875 2.68752C21.875 1.3125 20.75 0.1875 19.375 0.1875C18 0.1875 16.875 1.3125 16.875 2.68752C16.875 4.06254 18 5.18754 19.375 5.18754ZM6.25002 13.3125C2.8125 13.3125 0 16.125 0 19.5625C0 23 2.8125 25.8125 6.25002 25.8125C9.68754 25.8125 12.5 23 12.5 19.5625C12.5 16.125 9.68748 13.3125 6.25002 13.3125ZM6.25002 23.9375C3.81252 23.9375 1.875 22 1.875 19.5625C1.875 17.125 3.81252 15.1875 6.25002 15.1875C8.68752 15.1875 10.625 17.125 10.625 19.5625C10.625 22 8.68752 23.9375 6.25002 23.9375Z" fill="#FFA920"/>
<path d="M23.6876 12V9.49996C21.8126 9.49996 20.25 8.81248 19.125 7.68748L16.6875 5.3125C16.3125 4.87498 15.6875 4.5625 15 4.5625C14.3126 4.5625 13.6875 4.81252 13.25 5.3125L9.8125 8.75002C9.37498 9.18754 9.0625 9.8125 9.0625 10.5C9.0625 11.1876 9.37498 11.8125 9.8125 12.3125L13.75 15.8125V22.0625H16.25V14.25L13.5 11.5L16.4375 8.5L17.375 9.4375C18.9375 11.0625 21.125 12 23.6876 12Z" fill="#FFA920"/>
<path d="M23.75 13.3125C20.3125 13.3125 17.5 16.125 17.5 19.5625C17.5 23 20.3125 25.8125 23.75 25.8125C27.1875 25.8125 30 23 30 19.5625C30 16.125 27.1875 13.3125 23.75 13.3125ZM23.75 23.9375C21.3125 23.9375 19.375 22 19.375 19.5625C19.375 17.125 21.3125 15.1875 23.75 15.1875C26.1875 15.1875 28.125 17.125 28.125 19.5625C28.125 22 26.1875 23.9375 23.75 23.9375Z" fill="#FFA920"/>
</svg>
