<svg width="16" height="15" viewBox="0 0 16 15" fill="none" xmlns="http://www.w3.org/2000/svg">
<path d="M4.62501 9.25H6.31251M12.3305 1.9375C12.3388 1.975 12.3515 2.0125 12.3695 2.0485C12.8128 2.9485 13.0625 3.961 13.0625 5.03125C13.0641 6.10762 12.8072 7.16864 12.3133 8.125M12.3305 1.9375C12.2735 1.66375 12.4678 1.375 12.7618 1.375H13.4428C14.1095 1.375 14.7275 1.7635 14.9218 2.401C15.176 3.2335 15.3125 4.11625 15.3125 5.03125C15.3125 6.196 15.0913 7.30825 14.6893 8.32975C14.4598 8.91025 13.8748 9.25 13.25 9.25H12.4603C12.1063 9.25 11.9015 8.833 12.0853 8.53C12.1657 8.39766 12.2422 8.26258 12.3133 8.125M12.3305 1.9375H11.36C10.9973 1.93772 10.6369 1.87948 10.2928 1.765L7.95726 0.985001C7.61309 0.870526 7.25272 0.812279 6.89001 0.812501H3.87801C3.41451 0.812501 2.96526 0.997751 2.67426 1.35925C1.38572 2.95658 0.684409 4.94774 0.68751 7C0.68751 7.3255 0.70476 7.64725 0.73851 7.96375C0.82026 8.7295 1.50951 9.25 2.27901 9.25H4.62351C5.08701 9.25 5.36676 9.793 5.16726 10.2115C4.80897 10.9656 4.6237 11.7902 4.62501 12.625C4.62501 13.0726 4.8028 13.5018 5.11927 13.8182C5.43574 14.1347 5.86496 14.3125 6.31251 14.3125C6.46169 14.3125 6.60477 14.2532 6.71026 14.1477C6.81575 14.0423 6.87501 13.8992 6.87501 13.75V13.2753C6.87501 12.8455 6.95751 12.4203 7.11651 12.0213C7.34451 11.4513 7.81401 11.0238 8.35626 10.735C9.18872 10.2908 9.9193 9.67772 10.5013 8.935C10.8748 8.4595 11.4208 8.125 12.0253 8.125H12.3133" stroke="#8E8E93" stroke-linecap="round" stroke-linejoin="round"/>
</svg>
