<svg width="68" height="68" viewBox="0 0 68 68" fill="none" xmlns="http://www.w3.org/2000/svg">
<path fill-rule="evenodd" clip-rule="evenodd" d="M24.0867 7.19631H19.3992L24.0867 2.50781V7.19631ZM60.7439 23.6123V30.3351H7.25391V23.6123H60.7439ZM59.9725 31.4287L37.7276 53.6863C37.6254 53.7886 37.5646 53.9269 37.5646 54.0718V66.2659H30.7035V54.3465C30.7035 54.2013 30.6499 54.0627 30.5468 53.9597L8.03184 31.4287H59.9725Z" fill="#FFF5E0"/>
<path fill-rule="evenodd" clip-rule="evenodd" d="M12.5539 60.5958H11.0872C10.5596 60.5958 10.1286 60.1667 10.1286 59.6391V44.5619H5.83115V59.6391C5.83115 60.1667 5.4065 60.5958 4.87904 60.5958H3.41218L7.97982 65.4207L12.5539 60.5958ZM15.6548 59.2602C15.8092 59.6114 15.732 60.0192 15.4682 60.2966L8.67463 67.4704C8.49457 67.6614 8.24355 67.7695 7.97982 67.7695C7.71609 67.7695 7.47164 67.6614 7.28502 67.4704L0.491462 60.2966C0.362486 60.1609 0.276552 59.9901 0.244486 59.8057C0.21242 59.6212 0.235656 59.4314 0.311267 59.2602C0.459197 58.9089 0.806599 58.6818 1.18613 58.6818H3.92037V43.6046C3.92037 43.0758 4.35144 42.648 4.8789 42.648H11.087C11.6145 42.648 12.0456 43.0758 12.0456 43.6046V58.6818H14.7732C15.1593 58.6818 15.5067 58.9089 15.6548 59.2602ZM64.5866 60.5958H63.1263C63.0004 60.5962 62.8758 60.5718 62.7594 60.5239C62.643 60.476 62.5372 60.4056 62.4482 60.3167C62.3591 60.2278 62.2885 60.1222 62.2403 60.0059C62.1922 59.8896 62.1676 59.765 62.1678 59.6391V44.5619H57.8703V59.6391C57.8703 60.1667 57.4392 60.5958 56.9117 60.5958H55.4513L60.0189 65.4207L64.5866 60.5958ZM67.5074 60.2966L60.7139 67.4704C60.5337 67.6614 60.2828 67.7695 60.0191 67.7695C59.7553 67.7695 59.5045 67.6614 59.3243 67.4704L52.5307 60.2966C52.267 60.0194 52.1962 59.6115 52.3441 59.2602C52.4985 58.9089 52.8394 58.6818 53.2255 58.6818H55.9532V43.6046C55.9532 43.0758 56.3843 42.648 56.9117 42.648H63.1263C63.6537 42.648 64.0784 43.0758 64.0784 43.6046V58.6818H66.8125C67.192 58.6818 67.5394 58.9089 67.6939 59.2602C67.8419 59.6114 67.7712 60.0192 67.5074 60.2966ZM58.9832 31.8388L37.4381 53.3962C37.3488 53.4846 37.2778 53.5898 37.2293 53.7057C37.1807 53.8216 37.1555 53.946 37.1551 54.0717V65.8556H31.1141V54.3463C31.1141 54.0922 31.0176 53.8491 30.8376 53.6696L9.02203 31.8388H58.9832ZM7.66455 24.0223V29.9248H60.3342V24.0223H7.66455ZM19.0387 22.1083H48.9666V2.14439H25.5943V7.7433C25.5943 8.27213 25.1632 8.70061 24.6357 8.70061H19.0387V22.1083ZM20.3896 6.786L23.677 3.49791V6.786H20.3896ZM61.9683 31.5582L39.0721 54.4679V66.8128C39.0721 67.3416 38.6411 67.7694 38.1136 67.7694H30.162C29.6346 67.7694 29.2035 67.3416 29.2035 66.8128V54.7432L6.03049 31.5582C5.85029 31.3794 5.7539 31.1362 5.7539 30.8814V23.0656C5.7539 22.8109 5.85043 22.5677 6.03049 22.3889C6.12003 22.2995 6.22639 22.2286 6.34343 22.1805C6.46047 22.1323 6.58588 22.1078 6.71244 22.1083H17.1215V7.7433C17.1215 7.49051 17.2245 7.24728 17.4045 7.06654L23.9601 0.511016C24.1395 0.332063 24.3823 0.23123 24.6357 0.230469H49.9187C50.4463 0.230469 50.8772 0.658262 50.8772 1.18777V22.1083H61.2928C61.8202 22.1083 62.2449 22.5361 62.2449 23.0656V30.8814C62.2449 31.1362 62.1485 31.3794 61.9683 31.5582ZM44.3087 17.8102C44.8362 17.8102 45.2673 18.238 45.2673 18.7668C45.2673 19.2949 44.8362 19.7241 44.3087 19.7241H23.69C23.1624 19.7241 22.7315 19.2949 22.7315 18.7668C22.7315 18.238 23.1626 17.8102 23.69 17.8102H44.3087ZM35.2314 9.39609C34.704 9.39609 34.2793 8.9683 34.2793 8.43947C34.2793 7.91187 34.704 7.48217 35.2314 7.48217H44.3089C44.8363 7.48217 45.2674 7.91187 45.2674 8.43947C45.2674 8.9683 44.8363 9.39609 44.3089 9.39609H35.2314ZM45.2674 13.6028C45.2674 14.1309 44.8363 14.5601 44.3089 14.5601H23.69C23.1624 14.5601 22.7315 14.1311 22.7315 13.6028C22.7315 13.074 23.1626 12.6462 23.69 12.6462H44.3089C44.8363 12.6462 45.2674 13.074 45.2674 13.6028Z" fill="#FFA920"/>
</svg>
